<?xml version="1.0" encoding="UTF-8" standalone="no"?>
<!-- Created with Inkscape (http://www.inkscape.org/) -->

<svg
   width="240pt"
   height="240pt"
   viewBox="0 0 84.666667 84.666667"
   version="1.1"
   id="svg1"
   xmlns="http://www.w3.org/2000/svg"
   xmlns:svg="http://www.w3.org/2000/svg">
  <defs
     id="defs1">
    <mask
       maskUnits="userSpaceOnUse"
       id="mask2">
      <path
         style="fill:#b3ff80;stroke:#e39854;stroke-width:16.9333;stroke-dasharray:none;paint-order:fill markers stroke"
         d="M 646.83063,47.777262 C 127.7123,371.19258 217.75406,321.57773 128.63109,371.19258 39.50812,420.80744 549.43851,536.5754 549.43851,536.5754 L 315.14616,830.58929 h 56.96522 l -97.39212,1.83761 80.85383,130.46866 131.38745,32.1578 L 703.79582,959.22039 915.11832,781.89328 973.92109,646.83063 995.05336,536.5754 993.21575,436.4269 962.89556,328.92807 899.49885,217.75406 821.40139,134.14385 Z"
         id="path3" />
    </mask>
  </defs>
  <g
     id="layer1"
     transform="matrix(-0.08331808,0,0,0.08185895,83.911275,-1.9177288)">
    <ellipse
       style="fill:#1a1a1a;stroke:#e39854;stroke-width:16.671;stroke-dasharray:none;paint-order:fill markers stroke"
       id="path1-8"
       cx="498.51517"
       cy="533.23083"
       rx="487.53384"
       ry="488.91202" />
    <ellipse
       style="fill:#2aff2a;stroke:#e39854;stroke-width:16.671;stroke-dasharray:none;paint-order:fill markers stroke"
       id="path1"
       cx="509.46371"
       cy="504.41028"
       rx="487.53384"
       ry="488.91202"
       mask="url(#mask2)"
       transform="matrix(0.98637859,0,0,1,-1.1466648,33.076566)" />
  </g>
</svg>
