<?xml version="1.0" encoding="UTF-8" standalone="no"?>
<!-- Created with Inkscape (http://www.inkscape.org/) -->

<svg
   width="240pt"
   height="240pt"
   viewBox="0 0 84.666666 84.666665"
   version="1.1"
   id="svg1"
   inkscape:export-filename="icon1.svg"
   inkscape:export-xdpi="20.525253"
   inkscape:export-ydpi="20.525253"
   inkscape:version="1.4 (86a8ad7, 2024-10-11)"
   sodipodi:docname="icon1.svg"
   xmlns:inkscape="http://www.inkscape.org/namespaces/inkscape"
   xmlns:sodipodi="http://sodipodi.sourceforge.net/DTD/sodipodi-0.dtd"
   xmlns="http://www.w3.org/2000/svg"
   xmlns:svg="http://www.w3.org/2000/svg">
  <sodipodi:namedview
     id="namedview1"
     pagecolor="#ffffff"
     bordercolor="#000000"
     borderopacity="0.25"
     inkscape:showpageshadow="2"
     inkscape:pageopacity="0.0"
     inkscape:pagecheckerboard="0"
     inkscape:deskcolor="#d1d1d1"
     inkscape:document-units="mm"
     inkscape:zoom="2.3037458"
     inkscape:cx="159.95688"
     inkscape:cy="205.53483"
     inkscape:window-width="2520"
     inkscape:window-height="1574"
     inkscape:window-x="-11"
     inkscape:window-y="-11"
     inkscape:window-maximized="1"
     inkscape:current-layer="layer1" />
  <defs
     id="defs1">
    <mask
       maskUnits="userSpaceOnUse"
       id="mask5">
      <path
         style="fill:#e5ff80;stroke:#e39854;stroke-width:0.23;paint-order:fill markers stroke"
         d="m 69.713456,10.451276 c -2.710547,-0.05682 -5.365641,0.61752 -8.039441,0.918793 -1.756553,0.197922 -3.521961,0.307203 -5.283065,0.459397 -5.102344,0.440944 -2.748558,0.169012 -7.465195,0.803945 -0.842425,0.113403 -1.697395,0.157957 -2.526683,0.344547 -0.708655,0.159447 -1.364832,0.504239 -2.067285,0.689095 -1.701739,0.447826 -2.458556,0.514389 -4.134573,0.574246 -0.459102,0.0164 -0.921601,-0.05073 -1.378188,0 -0.240643,0.02674 -0.449789,0.192882 -0.689096,0.229699 -0.494411,0.07606 -1.099159,0 -1.607889,0 -0.03828,0 0.07912,-0.01374 0.11485,0 0.464508,0.178656 0.910932,0.402917 1.378191,0.574245 0.681971,0.250057 1.384647,0.440864 2.067285,0.689096 0.581244,0.211361 1.138042,0.487475 1.722736,0.689095 5.195697,1.791619 -1.453779,-0.703086 2.871232,0.918793 2.187139,0.820177 4.344855,1.749666 6.546403,2.526682 0.605155,0.213585 1.237559,0.34665 1.837587,0.574246 0.5125,0.194397 0.981445,0.492328 1.493038,0.689095 0.486,0.186923 1.01082,0.262936 1.493041,0.459397 0.554937,0.226086 1.050158,0.584836 1.607889,0.803944 0.518808,0.203818 1.077217,0.288825 1.607889,0.459397 0.541816,0.174156 1.062217,0.412566 1.607889,0.574246 1.552167,0.459902 1.237779,0.223308 2.641531,0.574246 1.034283,0.258571 2.040451,0.652448 3.100927,0.803944 0.156258,0.02232 0.459396,-0.043 0.459396,0.11485 0,0.03828 -0.07755,-0.0086 -0.114847,0 -0.46141,0.106478 -0.914385,0.249057 -1.378191,0.344547 -0.838452,0.172622 -1.679528,0.336423 -2.526684,0.459397 -3.797861,0.551302 -4.418166,0.63676 -7.924593,0.689095 -2.756072,0.04114 -5.516378,-0.141168 -8.269142,0 -1.68918,0.08662 -3.374147,0.256732 -5.053365,0.459398 -1.099547,0.132704 -2.152057,0.528164 -3.215775,0.803944 -2.507255,0.650028 -0.494464,0.04867 -3.330628,0.689094 -2.850538,0.643671 -0.598529,0.280496 -3.215777,0.803945 -0.45669,0.09134 -0.928868,0.107156 -1.378191,0.229698 -0.829479,0.226221 -1.61286,0.743108 -2.41183,1.033642 -0.410216,0.149169 -0.84576,0.217458 -1.263344,0.344548 -0.499131,0.151911 -1.728147,0.566928 -2.296983,0.803945 -0.153132,0.07657 -0.306264,0.153133 -0.459397,0.229698 -0.03828,0.03828 -0.06642,0.09064 -0.114849,0.11485 -0.03424,0.01712 -0.153132,0 -0.114849,0 1.592539,0 3.040307,0.426027 4.593967,0.803945 0.685906,0.166841 1.395812,0.24162 2.067285,0.459396 1.616303,0.524205 3.133767,1.314915 4.708819,1.952437 1.383966,0.560176 2.748317,1.168236 4.134569,1.722736 0.719731,0.287893 1.470637,0.496269 2.182136,0.803945 0.707146,0.305792 1.353296,0.744188 2.067284,1.033642 0.706904,0.286583 1.456701,0.453329 2.182136,0.689097 3.344023,1.086805 6.726089,2.020181 10.106728,2.986077 0.535962,0.153133 1.067121,0.324204 1.607889,0.459398 0.378754,0.09469 0.780336,0.09976 1.14849,0.229698 1.460326,0.83447 0.238922,0.232773 1.263343,0.574247 0.03632,0.01209 -0.07657,0 -0.11485,0 -0.420251,0 -0.735933,0.06328 -1.148493,0.114847 -0.457427,0.05718 -0.923081,0.04144 -1.378188,0.114851 -3.025897,0.488048 -1.34852,0.519872 -4.479121,0.689094 -3.357877,0.181507 -6.747494,-0.143968 -10.106726,0 -1.077073,0.04616 -2.143519,0.232854 -3.215777,0.344548 -0.765339,0.07972 -1.540238,0.0903 -2.296986,0.229698 -0.703352,0.129564 -1.372229,0.405747 -2.067285,0.574247 -1.93218,0.468407 -3.909843,0.860417 -5.857308,1.26334 -0.875239,0.181083 -1.657051,0.265491 -2.526681,0.344548 -0.620693,0.05642 -1.224794,0.267947 -1.837588,0.344546 -1.020112,0.127516 -2.765111,-0.147312 -3.675174,0.459399 -0.09009,0.06006 -0.132849,0.181274 -0.229699,0.229698 -0.06848,0.03424 -0.168445,-0.04594 -0.229698,0 -0.110425,0.08282 -0.132095,0.246943 -0.229698,0.344545 -0.0067,0.0067 -0.396597,0.125601 -0.344548,0.229701 0.03828,0.07656 0.147292,0.09167 0.229698,0.114848 12.628279,3.551703 -4.690262,-1.512721 6.316707,1.952437 5.434047,1.710719 11.05903,2.868927 16.653131,3.904872 1.144868,0.212013 2.292845,0.409585 3.445476,0.574246 5.316138,0.759447 -0.457248,-0.170273 3.790024,0.344548 8.718092,1.056738 -3.51636,-0.263096 4.019722,0.574244 2.051293,0.227923 4.05533,0.319701 6.087007,0.689097 1.358082,0.246925 2.558245,0.467288 3.904871,0.803944 0.233604,0.0584 3.375869,0.950812 3.790024,1.033643 0.02767,0.0055 1.222206,-0.123405 1.378188,0.344548 0.0448,0.13439 -0.220048,0.119332 -0.689094,0.229698 -0.460946,0.108458 -0.920937,0.22144 -1.37819,0.344546 -1.605481,0.432247 -2.24731,0.707146 -4.019722,1.033645 -2.363296,0.435343 -1.484469,0.06338 -3.790022,0.344545 -0.962123,0.117333 -1.914575,0.303663 -2.871232,0.459399 -7.351532,1.196761 2.757147,-0.405463 -3.904871,0.574244 -0.691166,0.101642 -1.371553,0.2813 -2.067285,0.344548 -0.571889,0.05199 -1.148726,-0.0164 -1.722739,0 -3.637804,0.103937 -7.26994,0.114851 -10.910671,0.114851 -1.982345,0 -3.99102,-0.08614 -5.972159,0 -2.033394,0.08841 -4.06704,0.405913 -6.087007,0.574243 -1.560558,0.130048 -3.130958,0.114851 -4.708816,0.114851 -1.113859,0 -2.631603,-0.177239 -3.675175,0.344548 -0.03424,0.01712 0.07709,-0.0063 0.11485,0 0.422194,0.07037 0.837941,0.18243 1.263341,0.229698 0.60997,0.06777 1.230999,0.02154 1.837587,0.114848 0.395039,0.06078 0.760738,0.24761 1.148492,0.344548 0.378755,0.09469 0.774544,0.117515 1.148491,0.229698 0.394933,0.11848 0.760995,0.31849 1.148492,0.459399 1.34188,0.487955 2.724115,0.913413 4.134572,1.14849 0.534037,0.08901 1.074914,0.134525 1.607888,0.229698 0.539594,0.09636 1.063991,0.276561 1.607889,0.344548 1.258562,0.157321 3.122441,0.114851 4.364268,0.114851 3.543422,0 7.15459,-0.197745 10.680975,0.229698 1.6354,0.198228 3.442007,0.401103 5.053364,0.803944 0.08088,0.02021 1.378191,0.562115 1.378191,0.459396 0,-0.03828 -0.07657,0 -0.11485,0 -0.15313,0 -0.307607,-0.02024 -0.459396,0 -2.9795,0.397267 0.654359,0.109508 -2.871229,0.344548 -3.831011,0.2554 -7.657457,0.497748 -11.48492,0.803945 -1.365409,0.109233 -2.663584,0.417766 -4.019722,0.574246 -1.143455,0.131935 -2.307423,0.05726 -3.445476,0.229698 -0.66104,0.100156 -1.294635,0.339797 -1.952434,0.459396 -0.60734,0.110424 -1.227847,0.133424 -1.837587,0.229698 -0.845561,0.133509 -1.678787,0.341633 -2.526683,0.459396 -2.175058,0.302094 -1.015978,-0.108701 -3.100928,0.344549 -0.390565,0.08491 -0.760739,0.24761 -1.148492,0.344548 -1.700729,0.425183 -0.619081,0.03757 -2.411833,0.459396 -1.007972,0.23717 -1.982386,0.667869 -2.986079,0.918795 -0.26262,0.06565 -0.539251,0.05813 -0.803944,0.114847 -0.844833,0.181036 -1.661779,0.478148 -2.526683,0.574247 -0.523315,0.05814 -1.752836,-0.0565 -2.1821343,0.229698 -0.090095,0.06006 -0.1396029,0.169635 -0.229698,0.229698 -0.063707,0.04247 -0.1755582,-0.05414 -0.2296986,0 -0.1694894,0.169489 0.9166669,0.860306 1.0336429,0.918795 0.260775,0.130386 0.546271,0.208129 0.803944,0.344545 0.39457,0.208891 0.742637,0.503079 1.148492,0.689097 1.002025,0.459261 2.085783,0.719008 3.100928,1.148493 4.181287,1.769004 0.01077,0.0054 2.067285,1.033642 1.242416,0.621205 0.487275,0.07136 1.49304,0.574244 0.171207,0.08561 0.297077,0.243099 0.459396,0.344548 0.601799,0.376124 1.306046,0.635998 1.952437,0.918795 0.85407,0.373655 1.748813,0.869516 2.641531,1.14849 0.59441,0.185751 1.725719,0.332449 2.296984,0.459399 0.272069,0.06046 0.529032,0.183877 0.803945,0.229698 2.698144,0.449691 5.436727,0.09382 8.154291,0.229698 0.703882,-0.06141 1.375487,0.183576 2.067285,0.229698 1.51084,0.100719 3.094501,-0.19993 4.593969,0 0.31292,0.04172 0.607398,0.1778 0.918794,0.229698 0.379505,0.06325 0.76566,0.07657 1.14849,0.11485 0.382831,0.07657 0.764977,0.156647 1.148493,0.229698 1.366195,0.260226 2.782912,0.367271 4.13457,0.689094 0.353309,0.08412 0.67751,0.273323 1.033642,0.344549 0.414639,0.08293 0.844741,0.05505 1.263343,0.11485 1.047695,0.149667 1.478984,0.309724 2.526681,0.459396 1.485718,0.212246 2.998997,0.340543 4.479118,0.574244 0.311828,0.04923 0.605036,0.194839 0.918795,0.229698 0.380489,0.04228 0.766093,-0.0182 1.14849,0 2.792571,0.132982 5.584886,0.11485 8.383992,0.11485 1.416474,0 2.832947,0 4.249418,0 1.601401,0 3.141509,0.218001 4.593971,-0.574246 0.190116,-0.103701 0.265697,-0.362548 0.459396,-0.459396 0.06848,-0.03424 0.161216,0.03424 0.229698,0 0.628904,-0.314452 1.104389,-3.293303 1.26334,-3.790024 0.876089,-2.737771 2.194396,-5.293559 3.560326,-7.809744 1.377683,-2.537838 2.968789,-4.931137 4.708816,-7.235499 1.792899,-2.374382 2.034773,-2.254671 3.560326,-4.708816 0.388763,-0.625404 0.682313,-1.305259 1.03364,-1.952437 0.895474,-1.649553 1.322509,-2.195068 1.952437,-3.904872 0.305546,-0.829339 0.524452,-1.688203 0.803942,-2.526681 0.559104,-1.677302 1.192006,-3.330405 1.607891,-5.053364 0.137409,-0.56927 0.211479,-1.152441 0.344546,-1.722739 0.135046,-0.578766 0.342842,-1.139966 0.459396,-1.722737 0.272021,-1.360096 0.416105,-2.980523 0.574249,-4.36427 0.279929,-2.449375 0.650153,-4.88968 0.803942,-7.350347 0.03452,-0.552366 0.198482,-2.748561 0.114853,-3.445476 -0.203129,-1.692722 -1.219147,-2.553134 -1.95244,-4.019723 -1.826268,-3.65254 0.976225,0.849072 -1.14849,-2.641531 -1.397122,-2.295271 -0.344781,-0.536233 -1.952437,-2.411833 -0.07023,-0.08194 -1.365692,-1.805383 -1.607889,-2.182134 -0.166902,-0.259628 -0.250047,-0.577149 -0.459396,-0.803945 -0.259665,-0.281305 -0.615352,-0.455679 -0.918792,-0.689095 -0.194297,-0.149459 -0.358415,-0.34318 -0.574249,-0.459397 -0.779129,-0.419531 -1.705224,-0.610748 -2.526681,-0.918793 -0.353036,-0.132389 -0.675944,-0.340165 -1.033645,-0.459397 -1.1821,-0.394034 -2.461945,-0.548528 -3.675171,-0.803944 -0.545452,-0.114832 -1.060024,-0.356673 -1.607889,-0.459397 -2.247257,-0.42136 -4.536712,-0.191453 -6.776101,-0.689095 -0.486791,-0.108176 -0.941316,-0.209754 -1.378191,-0.459397 -0.09606,-0.05489 -0.419364,-0.305827 -0.574246,-0.344547 -0.382146,-0.09554 -0.751972,-0.07109 -1.14849,-0.229699 -0.07109,-0.02844 0.05414,-0.175557 0,-0.229698 -0.196173,-0.196171 -0.468905,-0.156301 -0.689097,-0.229698 -0.226872,-0.07562 -0.35933,-0.466789 -0.574246,-0.574246 -0.06848,-0.03424 -0.15313,0 -0.229698,0 C 70.24942,10.75754 69.98144,10.604408 69.713456,10.451276 Z"
         id="path6" />
    </mask>
  </defs>
  <g
     inkscape:label="Слой 1"
     inkscape:groupmode="layer"
     id="layer1">
    <ellipse
       style="fill:#2ad4ff;stroke:#e39854;stroke-width:0.23;paint-order:fill markers stroke"
       id="path1-8"
       cx="43.551655"
       cy="42.733768"
       rx="38.87645"
       ry="39.048721" />
    <ellipse
       style="fill:#d4ff2a;stroke:#e39854;stroke-width:0.23;paint-order:fill markers stroke"
       id="path1"
       cx="43.011021"
       cy="42.379353"
       rx="38.87645"
       ry="39.048721"
       mask="url(#mask5)"
       transform="translate(0.68909513,0.45939675)" />
  </g>
</svg>
