<?xml version="1.0" encoding="utf-8"?>
<!-- Generator: Moho 14.1 build 20231027 -->
<!DOCTYPE svg PUBLIC "-//W3C//DTD SVG 1.1//EN" "http://www.w3.org/Graphics/SVG/1.1/DTD/svg11.dtd">
<svg version="1.1" id="Frame_0" xmlns="http://www.w3.org/2000/svg" xmlns:xlink="http://www.w3.org/1999/xlink" width="320px" height="240px">
<g id="Layer_11">
<g id="Layer_6">
<path id="S1" fill="none" stroke="#5db4d1" stroke-width="1" stroke-linecap="round" stroke-linejoin="round" d="M 213.683 152.458 C 242.161 152.529 299.115 152.670 299.118 152.670 "/>
<path id="S2" fill="none" stroke="#5db4d1" stroke-width="1" stroke-linecap="round" stroke-linejoin="round" d="M 299.722 152.369 C 299.722 150.671 300.982 149.302 302.544 149.302 C 304.106 149.302 305.366 150.671 305.366 152.369 C 305.366 154.066 304.106 155.435 302.544 155.435 C 300.982 155.435 299.722 154.066 299.722 152.369 "/>
<path id="S2_2" fill="none" stroke="#5db4d1" stroke-width="1" stroke-linecap="round" stroke-linejoin="round" d="M 207.837 152.369 C 207.837 150.671 209.097 149.302 210.659 149.302 C 212.221 149.302 213.481 150.671 213.481 152.369 C 213.481 154.066 212.221 155.435 210.659 155.435 C 209.097 155.435 207.837 154.066 207.837 152.369 "/>
<path id="S1_2" fill="none" stroke="#5db4d1" stroke-width="1" stroke-linecap="round" stroke-linejoin="round" d="M 226.279 159.924 C 254.758 159.995 311.711 160.136 311.714 160.136 "/>
<path id="S2_3" fill="none" stroke="#5db4d1" stroke-width="1" stroke-linecap="round" stroke-linejoin="round" d="M 312.318 159.835 C 312.318 158.137 313.578 156.768 315.140 156.768 C 316.702 156.768 317.962 158.137 317.962 159.835 C 317.962 161.532 316.702 162.901 315.140 162.901 C 313.578 162.901 312.318 161.532 312.318 159.835 "/>
<path id="S2_2_2" fill="none" stroke="#5db4d1" stroke-width="1" stroke-linecap="round" stroke-linejoin="round" d="M 220.433 159.835 C 220.433 158.137 221.693 156.768 223.255 156.768 C 224.817 156.768 226.077 158.137 226.077 159.835 C 226.077 161.532 224.817 162.901 223.255 162.901 C 221.693 162.901 220.433 161.532 220.433 159.835 "/>
<path id="S1_2_2" fill="none" stroke="#5db4d1" stroke-width="1" stroke-linecap="round" stroke-linejoin="round" d="M 239.162 167.390 C 267.640 167.461 324.594 167.602 324.597 167.602 "/>
<path id="S2_3_2" fill="none" stroke="#5db4d1" stroke-width="1" stroke-linecap="round" stroke-linejoin="round" d="M 325.201 167.301 C 325.201 165.603 326.461 164.234 328.023 164.234 C 329.585 164.234 330.845 165.603 330.845 167.301 C 330.845 168.998 329.585 170.367 328.023 170.367 C 326.461 170.367 325.201 168.998 325.201 167.301 "/>
<path id="S2_2_2_2" fill="none" stroke="#5db4d1" stroke-width="1" stroke-linecap="round" stroke-linejoin="round" d="M 233.316 167.301 C 233.316 165.603 234.576 164.234 236.138 164.234 C 237.700 164.234 238.960 165.603 238.960 167.301 C 238.960 168.998 237.700 170.367 236.138 170.367 C 234.576 170.367 233.316 168.998 233.316 167.301 "/>
<path id="S1_2_2_2" fill="none" stroke="#5db4d1" stroke-width="1" stroke-linecap="round" stroke-linejoin="round" d="M 255.480 176.101 C 283.958 176.171 340.912 176.312 340.915 176.313 "/>
<path id="S2_3_2_2" fill="none" stroke="#5db4d1" stroke-width="1" stroke-linecap="round" stroke-linejoin="round" d="M 341.519 176.011 C 341.519 174.314 342.779 172.944 344.341 172.944 C 345.903 172.944 347.163 174.314 347.163 176.011 C 347.163 177.708 345.903 179.077 344.341 179.077 C 342.779 179.077 341.519 177.708 341.519 176.011 "/>
<path id="S2_2_2_2_2" fill="none" stroke="#5db4d1" stroke-width="1" stroke-linecap="round" stroke-linejoin="round" d="M 249.634 176.011 C 249.634 174.314 250.894 172.944 252.456 172.944 C 254.018 172.944 255.278 174.314 255.278 176.011 C 255.278 177.708 254.018 179.077 252.456 179.077 C 250.894 179.077 249.634 177.708 249.634 176.011 "/>
<path id="S1_2_2_2_2" fill="none" stroke="#5db4d1" stroke-width="1" stroke-linecap="round" stroke-linejoin="round" d="M 239.162 185.433 C 267.640 185.504 324.594 185.645 324.597 185.645 "/>
<path id="S2_3_2_2_2" fill="none" stroke="#5db4d1" stroke-width="1" stroke-linecap="round" stroke-linejoin="round" d="M 325.201 185.343 C 325.201 183.646 326.461 182.277 328.023 182.277 C 329.585 182.277 330.845 183.646 330.845 185.343 C 330.845 187.041 329.585 188.410 328.023 188.410 C 326.461 188.410 325.201 187.041 325.201 185.343 "/>
<path id="S2_2_2_2_2_2" fill="none" stroke="#5db4d1" stroke-width="1" stroke-linecap="round" stroke-linejoin="round" d="M 233.316 185.343 C 233.316 183.646 234.576 182.277 236.138 182.277 C 237.700 182.277 238.960 183.646 238.960 185.343 C 238.960 187.041 237.700 188.410 236.138 188.410 C 234.576 188.410 233.316 187.040 233.316 185.343 "/>
<path id="S1_2_2_2_2_2" fill="none" stroke="#5db4d1" stroke-width="1" stroke-linecap="round" stroke-linejoin="round" d="M 227.138 194.454 C 255.616 194.525 312.570 194.666 312.573 194.666 "/>
<path id="S2_3_2_2_2_2" fill="none" stroke="#5db4d1" stroke-width="1" stroke-linecap="round" stroke-linejoin="round" d="M 313.177 194.365 C 313.177 192.667 314.437 191.298 315.999 191.298 C 317.561 191.298 318.821 192.667 318.821 194.365 C 318.821 196.062 317.561 197.431 315.999 197.431 C 314.437 197.431 313.177 196.062 313.177 194.365 "/>
<path id="S2_2_2_2_2_2_2" fill="none" stroke="#5db4d1" stroke-width="1" stroke-linecap="round" stroke-linejoin="round" d="M 221.292 194.365 C 221.292 192.667 222.552 191.298 224.114 191.298 C 225.676 191.298 226.936 192.667 226.936 194.365 C 226.936 196.062 225.676 197.431 224.114 197.431 C 222.552 197.431 221.292 196.062 221.292 194.365 "/>
<path id="S1_2_2_2_2_2_2" fill="none" stroke="#5db4d1" stroke-width="1" stroke-linecap="round" stroke-linejoin="round" d="M 216.259 202.854 C 244.738 202.924 301.692 203.065 301.695 203.065 "/>
<path id="S2_3_2_2_2_2_2" fill="none" stroke="#5db4d1" stroke-width="1" stroke-linecap="round" stroke-linejoin="round" d="M 302.298 202.764 C 302.298 201.066 303.558 199.697 305.120 199.697 C 306.682 199.697 307.942 201.067 307.942 202.764 C 307.942 204.461 306.682 205.830 305.120 205.830 C 303.558 205.830 302.298 204.461 302.298 202.764 "/>
<path id="S2_2_2_2_2_2_2_2" fill="none" stroke="#5db4d1" stroke-width="1" stroke-linecap="round" stroke-linejoin="round" d="M 210.414 202.764 C 210.414 201.067 211.674 199.697 213.236 199.697 C 214.798 199.697 216.058 201.067 216.058 202.764 C 216.058 204.461 214.798 205.830 213.236 205.830 C 211.674 205.830 210.414 204.461 210.414 202.764 "/>
</g>
<g id="Layer_2">
<path id="S1" fill="none" stroke="#5db4d1" stroke-width="1" stroke-linecap="round" stroke-linejoin="round" d="M 324.203 95.443 C 295.725 95.514 238.771 95.655 238.768 95.655 "/>
<path id="S2" fill="none" stroke="#5db4d1" stroke-width="1" stroke-linecap="round" stroke-linejoin="round" d="M 238.164 95.353 C 238.164 93.656 236.904 92.287 235.342 92.287 C 233.780 92.287 232.520 93.656 232.520 95.353 C 232.520 97.051 233.780 98.420 235.342 98.420 C 236.904 98.420 238.164 97.051 238.164 95.353 "/>
<path id="S2_2" fill="none" stroke="#5db4d1" stroke-width="1" stroke-linecap="round" stroke-linejoin="round" d="M 330.049 95.353 C 330.049 93.656 328.789 92.287 327.227 92.287 C 325.665 92.287 324.405 93.656 324.405 95.353 C 324.405 97.051 325.665 98.420 327.227 98.420 C 328.789 98.420 330.049 97.051 330.049 95.353 "/>
<path id="S1_2" fill="none" stroke="#5db4d1" stroke-width="1" stroke-linecap="round" stroke-linejoin="round" d="M 311.607 102.909 C 283.128 102.980 226.174 103.121 226.172 103.121 "/>
<path id="S2_3" fill="none" stroke="#5db4d1" stroke-width="1" stroke-linecap="round" stroke-linejoin="round" d="M 225.568 102.819 C 225.568 101.122 224.308 99.753 222.746 99.753 C 221.184 99.753 219.924 101.122 219.924 102.819 C 219.924 104.517 221.184 105.886 222.746 105.886 C 224.308 105.886 225.568 104.517 225.568 102.819 "/>
<path id="S2_2_2" fill="none" stroke="#5db4d1" stroke-width="1" stroke-linecap="round" stroke-linejoin="round" d="M 317.453 102.819 C 317.453 101.122 316.192 99.753 314.631 99.753 C 313.069 99.753 311.809 101.122 311.809 102.819 C 311.809 104.517 313.069 105.886 314.631 105.886 C 316.192 105.886 317.453 104.517 317.453 102.819 "/>
<path id="S1_2_2" fill="none" stroke="#5db4d1" stroke-width="1" stroke-linecap="round" stroke-linejoin="round" d="M 298.724 110.375 C 270.246 110.446 213.292 110.587 213.289 110.587 "/>
<path id="S2_3_2" fill="none" stroke="#5db4d1" stroke-width="1" stroke-linecap="round" stroke-linejoin="round" d="M 212.685 110.285 C 212.685 108.588 211.425 107.219 209.863 107.219 C 208.301 107.219 207.041 108.588 207.041 110.285 C 207.041 111.983 208.301 113.352 209.863 113.352 C 211.425 113.352 212.685 111.983 212.685 110.285 "/>
<path id="S2_2_2_2" fill="none" stroke="#5db4d1" stroke-width="1" stroke-linecap="round" stroke-linejoin="round" d="M 304.570 110.285 C 304.570 108.588 303.310 107.219 301.748 107.219 C 300.186 107.219 298.926 108.588 298.926 110.285 C 298.926 111.983 300.186 113.352 301.748 113.352 C 303.310 113.352 304.570 111.983 304.570 110.285 "/>
<path id="S1_2_2_2" fill="none" stroke="#5db4d1" stroke-width="1" stroke-linecap="round" stroke-linejoin="round" d="M 282.406 119.085 C 253.928 119.156 196.974 119.297 196.971 119.297 "/>
<path id="S2_3_2_2" fill="none" stroke="#5db4d1" stroke-width="1" stroke-linecap="round" stroke-linejoin="round" d="M 196.367 118.996 C 196.367 117.298 195.107 115.929 193.545 115.929 C 191.983 115.929 190.723 117.298 190.723 118.996 C 190.723 120.693 191.983 122.062 193.545 122.062 C 195.107 122.062 196.367 120.693 196.367 118.996 "/>
<path id="S2_2_2_2_2" fill="none" stroke="#5db4d1" stroke-width="1" stroke-linecap="round" stroke-linejoin="round" d="M 288.252 118.996 C 288.252 117.298 286.992 115.929 285.430 115.929 C 283.868 115.929 282.608 117.298 282.608 118.996 C 282.608 120.693 283.868 122.062 285.430 122.062 C 286.992 122.062 288.252 120.693 288.252 118.996 "/>
<path id="S1_2_2_2_2" fill="none" stroke="#5db4d1" stroke-width="1" stroke-linecap="round" stroke-linejoin="round" d="M 298.724 128.418 C 270.246 128.488 213.292 128.630 213.289 128.630 "/>
<path id="S2_3_2_2_2" fill="none" stroke="#5db4d1" stroke-width="1" stroke-linecap="round" stroke-linejoin="round" d="M 212.685 128.328 C 212.685 126.631 211.425 125.261 209.863 125.262 C 208.301 125.262 207.041 126.631 207.041 128.328 C 207.041 130.025 208.301 131.394 209.863 131.394 C 211.425 131.394 212.685 130.025 212.685 128.328 "/>
<path id="S2_2_2_2_2_2" fill="none" stroke="#5db4d1" stroke-width="1" stroke-linecap="round" stroke-linejoin="round" d="M 304.570 128.328 C 304.570 126.631 303.310 125.262 301.748 125.262 C 300.186 125.262 298.926 126.631 298.926 128.328 C 298.926 130.025 300.186 131.394 301.748 131.394 C 303.310 131.394 304.570 130.025 304.570 128.328 "/>
<path id="S1_2_2_2_2_2" fill="none" stroke="#5db4d1" stroke-width="1" stroke-linecap="round" stroke-linejoin="round" d="M 310.748 137.439 C 282.270 137.510 225.316 137.651 225.313 137.651 "/>
<path id="S2_3_2_2_2_2" fill="none" stroke="#5db4d1" stroke-width="1" stroke-linecap="round" stroke-linejoin="round" d="M 224.709 137.349 C 224.709 135.652 223.449 134.283 221.887 134.283 C 220.325 134.283 219.065 135.652 219.065 137.349 C 219.065 139.047 220.325 140.416 221.887 140.416 C 223.449 140.416 224.709 139.047 224.709 137.349 "/>
<path id="S2_2_2_2_2_2_2" fill="none" stroke="#5db4d1" stroke-width="1" stroke-linecap="round" stroke-linejoin="round" d="M 316.594 137.349 C 316.594 135.652 315.334 134.283 313.772 134.283 C 312.210 134.283 310.950 135.652 310.950 137.349 C 310.950 139.047 312.210 140.416 313.772 140.416 C 315.334 140.416 316.594 139.047 316.594 137.349 "/>
<path id="S1_2_2_2_2_2_2" fill="none" stroke="#5db4d1" stroke-width="1" stroke-linecap="round" stroke-linejoin="round" d="M 321.626 145.838 C 293.148 145.909 236.194 146.050 236.191 146.050 "/>
<path id="S2_3_2_2_2_2_2" fill="none" stroke="#5db4d1" stroke-width="1" stroke-linecap="round" stroke-linejoin="round" d="M 235.588 145.749 C 235.588 144.051 234.328 142.682 232.766 142.682 C 231.204 142.682 229.944 144.051 229.944 145.749 C 229.944 147.446 231.204 148.815 232.766 148.815 C 234.328 148.815 235.588 147.446 235.588 145.749 "/>
<path id="S2_2_2_2_2_2_2_2" fill="none" stroke="#5db4d1" stroke-width="1" stroke-linecap="round" stroke-linejoin="round" d="M 327.472 145.749 C 327.472 144.051 326.212 142.682 324.650 142.682 C 323.088 142.682 321.828 144.051 321.828 145.749 C 321.828 147.446 323.088 148.815 324.650 148.815 C 326.212 148.815 327.472 147.446 327.472 145.749 "/>
</g>
<g id="Layer_5">
<path id="S1" fill="none" stroke="#5db4d1" stroke-width="1" stroke-linecap="round" stroke-linejoin="round" d="M 331.686 35.934 C 303.208 36.004 246.254 36.146 246.251 36.146 "/>
<path id="S2" fill="none" stroke="#5db4d1" stroke-width="1" stroke-linecap="round" stroke-linejoin="round" d="M 245.647 35.844 C 245.647 34.147 244.387 32.777 242.826 32.777 C 241.264 32.777 240.004 34.147 240.004 35.844 C 240.004 37.541 241.264 38.910 242.826 38.910 C 244.387 38.910 245.647 37.541 245.647 35.844 "/>
<path id="S2_2" fill="none" stroke="#5db4d1" stroke-width="1" stroke-linecap="round" stroke-linejoin="round" d="M 337.532 35.844 C 337.532 34.147 336.272 32.777 334.710 32.777 C 333.148 32.777 331.888 34.147 331.888 35.844 C 331.888 37.541 333.148 38.910 334.710 38.910 C 336.272 38.910 337.532 37.541 337.532 35.844 "/>
<path id="S1_2" fill="none" stroke="#5db4d1" stroke-width="1" stroke-linecap="round" stroke-linejoin="round" d="M 319.090 43.400 C 290.612 43.470 233.658 43.611 233.655 43.612 "/>
<path id="S2_3" fill="none" stroke="#5db4d1" stroke-width="1" stroke-linecap="round" stroke-linejoin="round" d="M 233.051 43.310 C 233.051 41.613 231.791 40.243 230.229 40.243 C 228.667 40.243 227.407 41.613 227.407 43.310 C 227.407 45.007 228.667 46.376 230.229 46.376 C 231.791 46.376 233.051 45.007 233.051 43.310 "/>
<path id="S2_2_2" fill="none" stroke="#5db4d1" stroke-width="1" stroke-linecap="round" stroke-linejoin="round" d="M 324.936 43.310 C 324.936 41.613 323.676 40.243 322.114 40.243 C 320.552 40.243 319.292 41.613 319.292 43.310 C 319.292 45.007 320.552 46.376 322.114 46.376 C 323.676 46.376 324.936 45.007 324.936 43.310 "/>
<path id="S1_2_2" fill="none" stroke="#5db4d1" stroke-width="1" stroke-linecap="round" stroke-linejoin="round" d="M 306.207 50.866 C 277.729 50.936 220.775 51.077 220.772 51.077 "/>
<path id="S2_3_2" fill="none" stroke="#5db4d1" stroke-width="1" stroke-linecap="round" stroke-linejoin="round" d="M 220.169 50.776 C 220.169 49.078 218.909 47.709 217.347 47.709 C 215.785 47.709 214.525 49.078 214.525 50.776 C 214.525 52.473 215.785 53.842 217.347 53.842 C 218.909 53.842 220.169 52.473 220.169 50.776 "/>
<path id="S2_2_2_2" fill="none" stroke="#5db4d1" stroke-width="1" stroke-linecap="round" stroke-linejoin="round" d="M 312.053 50.776 C 312.053 49.078 310.793 47.709 309.231 47.709 C 307.669 47.709 306.409 49.078 306.409 50.776 C 306.409 52.473 307.669 53.842 309.231 53.842 C 310.793 53.842 312.053 52.473 312.053 50.776 "/>
<path id="S1_2_2_2" fill="none" stroke="#5db4d1" stroke-width="1" stroke-linecap="round" stroke-linejoin="round" d="M 289.889 59.576 C 261.411 59.646 204.457 59.788 204.454 59.788 "/>
<path id="S2_3_2_2" fill="none" stroke="#5db4d1" stroke-width="1" stroke-linecap="round" stroke-linejoin="round" d="M 203.851 59.486 C 203.851 57.789 202.591 56.420 201.029 56.420 C 199.467 56.420 198.207 57.789 198.207 59.486 C 198.207 61.183 199.467 62.552 201.029 62.552 C 202.591 62.553 203.851 61.183 203.851 59.486 "/>
<path id="S2_2_2_2_2" fill="none" stroke="#5db4d1" stroke-width="1" stroke-linecap="round" stroke-linejoin="round" d="M 295.735 59.486 C 295.735 57.789 294.475 56.420 292.913 56.420 C 291.351 56.420 290.091 57.789 290.091 59.486 C 290.091 61.183 291.351 62.552 292.913 62.552 C 294.475 62.552 295.735 61.183 295.735 59.486 "/>
<path id="S1_2_2_2_2" fill="none" stroke="#5db4d1" stroke-width="1" stroke-linecap="round" stroke-linejoin="round" d="M 306.207 68.908 C 277.729 68.979 220.775 69.120 220.772 69.120 "/>
<path id="S2_3_2_2_2" fill="none" stroke="#5db4d1" stroke-width="1" stroke-linecap="round" stroke-linejoin="round" d="M 220.169 68.818 C 220.169 67.121 218.909 65.752 217.347 65.752 C 215.785 65.752 214.525 67.121 214.525 68.818 C 214.525 70.516 215.785 71.885 217.347 71.885 C 218.909 71.885 220.169 70.516 220.169 68.818 "/>
<path id="S2_2_2_2_2_2" fill="none" stroke="#5db4d1" stroke-width="1" stroke-linecap="round" stroke-linejoin="round" d="M 312.053 68.818 C 312.053 67.121 310.793 65.752 309.231 65.752 C 307.669 65.752 306.409 67.121 306.409 68.818 C 306.409 70.516 307.669 71.885 309.231 71.885 C 310.793 71.885 312.053 70.516 312.053 68.818 "/>
<path id="S1_2_2_2_2_2" fill="none" stroke="#5db4d1" stroke-width="1" stroke-linecap="round" stroke-linejoin="round" d="M 318.231 77.930 C 289.753 78.000 232.799 78.142 232.796 78.142 "/>
<path id="S2_3_2_2_2_2" fill="none" stroke="#5db4d1" stroke-width="1" stroke-linecap="round" stroke-linejoin="round" d="M 232.192 77.840 C 232.192 76.143 230.932 74.773 229.370 74.773 C 227.808 74.773 226.548 76.143 226.548 77.840 C 226.548 79.537 227.808 80.906 229.370 80.906 C 230.932 80.906 232.192 79.537 232.192 77.840 "/>
<path id="S2_2_2_2_2_2_2" fill="none" stroke="#5db4d1" stroke-width="1" stroke-linecap="round" stroke-linejoin="round" d="M 324.077 77.840 C 324.077 76.143 322.817 74.773 321.255 74.773 C 319.693 74.773 318.433 76.143 318.433 77.840 C 318.433 79.537 319.693 80.906 321.255 80.906 C 322.817 80.906 324.077 79.537 324.077 77.840 "/>
<path id="S1_2_2_2_2_2_2" fill="none" stroke="#5db4d1" stroke-width="1" stroke-linecap="round" stroke-linejoin="round" d="M 329.110 86.329 C 300.631 86.399 243.677 86.541 243.675 86.541 "/>
<path id="S2_3_2_2_2_2_2" fill="none" stroke="#5db4d1" stroke-width="1" stroke-linecap="round" stroke-linejoin="round" d="M 243.071 86.239 C 243.071 84.542 241.811 83.173 240.249 83.173 C 238.687 83.173 237.427 84.542 237.427 86.239 C 237.427 87.936 238.687 89.305 240.249 89.305 C 241.811 89.305 243.071 87.936 243.071 86.239 "/>
<path id="S2_2_2_2_2_2_2_2" fill="none" stroke="#5db4d1" stroke-width="1" stroke-linecap="round" stroke-linejoin="round" d="M 334.955 86.239 C 334.955 84.542 333.695 83.173 332.133 83.173 C 330.572 83.173 329.311 84.542 329.311 86.239 C 329.311 87.936 330.572 89.305 332.133 89.305 C 333.695 89.305 334.955 87.936 334.955 86.239 "/>
</g>
<g id="Layer_9">
<path id="S1" fill="none" stroke="#5db4d1" stroke-width="1" stroke-linecap="round" stroke-linejoin="round" d="M 361.263 -19.300 C 332.785 -19.229 275.831 -19.088 275.828 -19.088 "/>
<path id="S2" fill="none" stroke="#5db4d1" stroke-width="1" stroke-linecap="round" stroke-linejoin="round" d="M 275.224 -19.389 C 275.224 -21.087 273.964 -22.456 272.402 -22.456 C 270.840 -22.456 269.580 -21.087 269.580 -19.389 C 269.580 -17.692 270.840 -16.323 272.402 -16.323 C 273.964 -16.323 275.224 -17.692 275.224 -19.389 "/>
<path id="S2_2" fill="none" stroke="#5db4d1" stroke-width="1" stroke-linecap="round" stroke-linejoin="round" d="M 367.109 -19.389 C 367.109 -21.087 365.849 -22.456 364.287 -22.456 C 362.725 -22.456 361.465 -21.087 361.465 -19.389 C 361.465 -17.692 362.725 -16.323 364.287 -16.323 C 365.849 -16.323 367.109 -17.692 367.109 -19.389 "/>
<path id="S1_2" fill="none" stroke="#5db4d1" stroke-width="1" stroke-linecap="round" stroke-linejoin="round" d="M 348.667 -11.834 C 320.188 -11.763 263.234 -11.622 263.232 -11.622 "/>
<path id="S2_3" fill="none" stroke="#5db4d1" stroke-width="1" stroke-linecap="round" stroke-linejoin="round" d="M 262.628 -11.924 C 262.628 -13.621 261.368 -14.990 259.806 -14.990 C 258.244 -14.990 256.984 -13.621 256.984 -11.924 C 256.984 -10.226 258.244 -8.857 259.806 -8.857 C 261.368 -8.857 262.628 -10.226 262.628 -11.924 "/>
<path id="S2_2_2" fill="none" stroke="#5db4d1" stroke-width="1" stroke-linecap="round" stroke-linejoin="round" d="M 354.512 -11.924 C 354.512 -13.621 353.252 -14.990 351.690 -14.990 C 350.128 -14.990 348.868 -13.621 348.868 -11.924 C 348.868 -10.226 350.128 -8.857 351.690 -8.857 C 353.252 -8.857 354.512 -10.226 354.512 -11.924 "/>
<path id="S1_2_2" fill="none" stroke="#5db4d1" stroke-width="1" stroke-linecap="round" stroke-linejoin="round" d="M 335.784 -4.368 C 307.306 -4.297 250.352 -4.156 250.349 -4.156 "/>
<path id="S2_3_2" fill="none" stroke="#5db4d1" stroke-width="1" stroke-linecap="round" stroke-linejoin="round" d="M 249.745 -4.458 C 249.745 -6.155 248.485 -7.524 246.923 -7.524 C 245.361 -7.524 244.101 -6.155 244.101 -4.458 C 244.101 -2.760 245.361 -1.391 246.923 -1.391 C 248.485 -1.391 249.745 -2.760 249.745 -4.458 "/>
<path id="S2_2_2_2" fill="none" stroke="#5db4d1" stroke-width="1" stroke-linecap="round" stroke-linejoin="round" d="M 341.630 -4.458 C 341.630 -6.155 340.370 -7.524 338.808 -7.524 C 337.246 -7.524 335.986 -6.155 335.986 -4.458 C 335.986 -2.760 337.246 -1.391 338.808 -1.391 C 340.370 -1.391 341.630 -2.760 341.630 -4.458 "/>
<path id="S1_2_2_2" fill="none" stroke="#5db4d1" stroke-width="1" stroke-linecap="round" stroke-linejoin="round" d="M 319.466 4.342 C 290.988 4.413 234.034 4.554 234.031 4.554 "/>
<path id="S2_3_2_2" fill="none" stroke="#5db4d1" stroke-width="1" stroke-linecap="round" stroke-linejoin="round" d="M 233.427 4.253 C 233.427 2.555 232.167 1.186 230.605 1.186 C 229.043 1.186 227.783 2.555 227.783 4.253 C 227.783 5.950 229.043 7.319 230.605 7.319 C 232.167 7.319 233.427 5.950 233.427 4.253 "/>
<path id="S2_2_2_2_2" fill="none" stroke="#5db4d1" stroke-width="1" stroke-linecap="round" stroke-linejoin="round" d="M 325.312 4.253 C 325.312 2.555 324.052 1.186 322.490 1.186 C 320.928 1.186 319.668 2.555 319.668 4.253 C 319.668 5.950 320.928 7.319 322.490 7.319 C 324.052 7.319 325.312 5.950 325.312 4.253 "/>
<path id="S1_2_2_2_2" fill="none" stroke="#5db4d1" stroke-width="1" stroke-linecap="round" stroke-linejoin="round" d="M 335.784 13.675 C 307.306 13.745 250.352 13.887 250.349 13.887 "/>
<path id="S2_3_2_2_2" fill="none" stroke="#5db4d1" stroke-width="1" stroke-linecap="round" stroke-linejoin="round" d="M 249.745 13.585 C 249.745 11.888 248.485 10.519 246.923 10.519 C 245.361 10.519 244.101 11.888 244.101 13.585 C 244.101 15.282 245.361 16.652 246.923 16.652 C 248.485 16.652 249.745 15.282 249.745 13.585 "/>
<path id="S2_2_2_2_2_2" fill="none" stroke="#5db4d1" stroke-width="1" stroke-linecap="round" stroke-linejoin="round" d="M 341.630 13.585 C 341.630 11.888 340.370 10.519 338.808 10.519 C 337.246 10.519 335.986 11.888 335.986 13.585 C 335.986 15.282 337.246 16.652 338.808 16.652 C 340.370 16.652 341.630 15.282 341.630 13.585 "/>
<path id="S1_2_2_2_2_2" fill="none" stroke="#5db4d1" stroke-width="1" stroke-linecap="round" stroke-linejoin="round" d="M 347.808 22.696 C 319.329 22.767 262.375 22.908 262.373 22.908 "/>
<path id="S2_3_2_2_2_2" fill="none" stroke="#5db4d1" stroke-width="1" stroke-linecap="round" stroke-linejoin="round" d="M 261.769 22.606 C 261.769 20.909 260.509 19.540 258.947 19.540 C 257.385 19.540 256.125 20.909 256.125 22.606 C 256.125 24.304 257.385 25.673 258.947 25.673 C 260.509 25.673 261.769 24.304 261.769 22.606 "/>
<path id="S2_2_2_2_2_2_2" fill="none" stroke="#5db4d1" stroke-width="1" stroke-linecap="round" stroke-linejoin="round" d="M 353.653 22.606 C 353.653 20.909 352.393 19.540 350.831 19.540 C 349.270 19.540 348.009 20.909 348.009 22.606 C 348.009 24.304 349.270 25.673 350.831 25.673 C 352.393 25.673 353.653 24.304 353.653 22.606 "/>
<path id="S1_2_2_2_2_2_2" fill="none" stroke="#5db4d1" stroke-width="1" stroke-linecap="round" stroke-linejoin="round" d="M 358.686 31.095 C 330.208 31.166 273.254 31.307 273.251 31.307 "/>
<path id="S2_3_2_2_2_2_2" fill="none" stroke="#5db4d1" stroke-width="1" stroke-linecap="round" stroke-linejoin="round" d="M 272.648 31.006 C 272.648 29.308 271.388 27.939 269.826 27.939 C 268.264 27.939 267.004 29.308 267.004 31.006 C 267.004 32.703 268.264 34.072 269.826 34.072 C 271.388 34.072 272.648 32.703 272.648 31.006 "/>
<path id="S2_2_2_2_2_2_2_2" fill="none" stroke="#5db4d1" stroke-width="1" stroke-linecap="round" stroke-linejoin="round" d="M 364.532 31.006 C 364.532 29.308 363.272 27.939 361.710 27.939 C 360.148 27.939 358.888 29.308 358.888 31.006 C 358.888 32.703 360.148 34.072 361.710 34.072 C 363.272 34.072 364.532 32.703 364.532 31.006 "/>
</g>
<g id="Layer_7">
<path id="S1" fill="none" stroke="#5db4d1" stroke-width="1" stroke-linecap="round" stroke-linejoin="round" d="M 205.477 215.119 C 236.182 215.194 297.588 215.343 297.591 215.343 "/>
<path id="S2" fill="none" stroke="#5db4d1" stroke-width="1" stroke-linecap="round" stroke-linejoin="round" d="M 298.242 215.024 C 298.242 213.229 299.601 211.780 301.285 211.780 C 302.969 211.780 304.328 213.229 304.328 215.024 C 304.328 216.820 302.969 218.268 301.285 218.268 C 299.601 218.268 298.242 216.820 298.242 215.024 "/>
<path id="S2_2" fill="none" stroke="#5db4d1" stroke-width="1" stroke-linecap="round" stroke-linejoin="round" d="M 199.174 215.024 C 199.174 213.229 200.533 211.780 202.217 211.780 C 203.901 211.780 205.259 213.229 205.259 215.024 C 205.259 216.820 203.901 218.268 202.217 218.268 C 200.533 218.268 199.174 216.820 199.174 215.024 "/>
<path id="S1_2" fill="none" stroke="#5db4d1" stroke-width="1" stroke-linecap="round" stroke-linejoin="round" d="M 219.058 223.017 C 249.763 223.092 311.169 223.241 311.173 223.241 "/>
<path id="S2_3" fill="none" stroke="#5db4d1" stroke-width="1" stroke-linecap="round" stroke-linejoin="round" d="M 311.823 222.922 C 311.823 221.127 313.182 219.678 314.866 219.678 C 316.550 219.678 317.909 221.127 317.909 222.922 C 317.909 224.718 316.550 226.166 314.866 226.166 C 313.182 226.166 311.823 224.718 311.823 222.922 "/>
<path id="S2_2_2" fill="none" stroke="#5db4d1" stroke-width="1" stroke-linecap="round" stroke-linejoin="round" d="M 212.755 222.922 C 212.755 221.127 214.114 219.678 215.798 219.678 C 217.482 219.678 218.840 221.127 218.840 222.922 C 218.840 224.718 217.482 226.166 215.798 226.166 C 214.114 226.166 212.755 224.718 212.755 222.922 "/>
<path id="S1_2_2" fill="none" stroke="#5db4d1" stroke-width="1" stroke-linecap="round" stroke-linejoin="round" d="M 232.948 230.915 C 263.653 230.990 325.059 231.139 325.062 231.139 "/>
<path id="S2_3_2" fill="none" stroke="#5db4d1" stroke-width="1" stroke-linecap="round" stroke-linejoin="round" d="M 325.713 230.820 C 325.713 229.025 327.072 227.576 328.756 227.576 C 330.440 227.576 331.798 229.025 331.798 230.820 C 331.798 232.616 330.440 234.064 328.756 234.064 C 327.072 234.064 325.713 232.616 325.713 230.820 "/>
<path id="S2_2_2_2" fill="none" stroke="#5db4d1" stroke-width="1" stroke-linecap="round" stroke-linejoin="round" d="M 226.645 230.820 C 226.645 229.025 228.004 227.576 229.688 227.576 C 231.372 227.576 232.730 229.025 232.730 230.820 C 232.730 232.616 231.372 234.064 229.688 234.064 C 228.004 234.064 226.645 232.616 226.645 230.820 "/>
<path id="S1_2_2_2" fill="none" stroke="#5db4d1" stroke-width="1" stroke-linecap="round" stroke-linejoin="round" d="M 250.542 240.129 C 281.246 240.204 342.653 240.354 342.656 240.354 "/>
<path id="S2_3_2_2" fill="none" stroke="#5db4d1" stroke-width="1" stroke-linecap="round" stroke-linejoin="round" d="M 343.307 240.034 C 343.307 238.239 344.666 236.790 346.350 236.790 C 348.034 236.790 349.392 238.239 349.392 240.034 C 349.392 241.830 348.034 243.278 346.350 243.278 C 344.666 243.278 343.307 241.830 343.307 240.034 "/>
<path id="S2_2_2_2_2" fill="none" stroke="#5db4d1" stroke-width="1" stroke-linecap="round" stroke-linejoin="round" d="M 244.239 240.034 C 244.239 238.239 245.597 236.790 247.281 236.790 C 248.965 236.790 250.324 238.239 250.324 240.034 C 250.324 241.830 248.965 243.278 247.281 243.278 C 245.597 243.278 244.239 241.830 244.239 240.034 "/>
<path id="S1_2_2_2_2" fill="none" stroke="#5db4d1" stroke-width="1" stroke-linecap="round" stroke-linejoin="round" d="M 232.948 250.002 C 263.653 250.077 325.059 250.226 325.062 250.226 "/>
<path id="S2_3_2_2_2" fill="none" stroke="#5db4d1" stroke-width="1" stroke-linecap="round" stroke-linejoin="round" d="M 325.713 249.907 C 325.713 248.111 327.072 246.663 328.756 246.663 C 330.440 246.663 331.798 248.111 331.798 249.907 C 331.798 251.702 330.440 253.151 328.756 253.151 C 327.072 253.151 325.713 251.702 325.713 249.907 "/>
<path id="S2_2_2_2_2_2" fill="none" stroke="#5db4d1" stroke-width="1" stroke-linecap="round" stroke-linejoin="round" d="M 226.645 249.907 C 226.645 248.111 228.004 246.663 229.688 246.663 C 231.372 246.663 232.730 248.111 232.730 249.907 C 232.730 251.702 231.372 253.151 229.688 253.151 C 228.004 253.151 226.645 251.702 226.645 249.907 "/>
<path id="S1_2_2_2_2_2" fill="none" stroke="#5db4d1" stroke-width="1" stroke-linecap="round" stroke-linejoin="round" d="M 219.984 259.545 C 250.689 259.620 312.096 259.769 312.099 259.769 "/>
<path id="S2_3_2_2_2_2" fill="none" stroke="#5db4d1" stroke-width="1" stroke-linecap="round" stroke-linejoin="round" d="M 312.749 259.450 C 312.749 257.655 314.108 256.206 315.792 256.206 C 317.476 256.206 318.835 257.655 318.835 259.450 C 318.835 261.246 317.476 262.694 315.792 262.694 C 314.108 262.694 312.749 261.246 312.749 259.450 "/>
<path id="S2_2_2_2_2_2_2" fill="none" stroke="#5db4d1" stroke-width="1" stroke-linecap="round" stroke-linejoin="round" d="M 213.681 259.450 C 213.681 257.655 215.040 256.206 216.724 256.206 C 218.408 256.206 219.767 257.655 219.767 259.450 C 219.767 261.246 218.408 262.694 216.724 262.694 C 215.040 262.694 213.681 261.246 213.681 259.450 "/>
<path id="S1_2_2_2_2_2_2" fill="none" stroke="#5db4d1" stroke-width="1" stroke-linecap="round" stroke-linejoin="round" d="M 208.255 268.430 C 238.960 268.505 300.366 268.655 300.369 268.655 "/>
<path id="S2_3_2_2_2_2_2" fill="none" stroke="#5db4d1" stroke-width="1" stroke-linecap="round" stroke-linejoin="round" d="M 301.020 268.335 C 301.020 266.540 302.379 265.091 304.063 265.091 C 305.747 265.091 307.106 266.540 307.106 268.335 C 307.106 270.131 305.747 271.579 304.063 271.579 C 302.379 271.579 301.020 270.131 301.020 268.335 "/>
<path id="S2_2_2_2_2_2_2_2" fill="none" stroke="#5db4d1" stroke-width="1" stroke-linecap="round" stroke-linejoin="round" d="M 201.952 268.335 C 201.952 266.540 203.311 265.091 204.995 265.091 C 206.679 265.091 208.037 266.540 208.037 268.335 C 208.037 270.131 206.679 271.579 204.995 271.579 C 203.311 271.579 201.952 270.131 201.952 268.335 "/>
</g>
<g id="Layer_8">
<path id="S1" fill="none" stroke="#5db4d1" stroke-width="1" stroke-linecap="round" stroke-linejoin="round" d="M 48.762 158.208 C 48.742 182.078 48.703 229.814 48.703 229.817 "/>
<path id="S2" fill="none" stroke="#5db4d1" stroke-width="1" stroke-linecap="round" stroke-linejoin="round" d="M 48.946 230.322 C 50.309 230.320 51.411 231.374 51.413 232.684 C 51.415 233.993 50.317 235.051 48.953 235.053 C 47.590 235.055 46.488 234.000 46.486 232.691 C 46.484 231.382 47.582 230.324 48.946 230.322 "/>
<path id="S2_2" fill="none" stroke="#5db4d1" stroke-width="1" stroke-linecap="round" stroke-linejoin="round" d="M 48.827 153.308 C 50.190 153.306 51.292 154.361 51.294 155.670 C 51.296 156.979 50.197 158.037 48.834 158.039 C 47.470 158.041 46.369 156.987 46.367 155.677 C 46.365 154.368 47.463 153.310 48.827 153.308 "/>
<path id="S1_2" fill="none" stroke="#5db4d1" stroke-width="1" stroke-linecap="round" stroke-linejoin="round" d="M 42.780 168.775 C 42.761 192.645 42.721 240.381 42.721 240.384 "/>
<path id="S2_3" fill="none" stroke="#5db4d1" stroke-width="1" stroke-linecap="round" stroke-linejoin="round" d="M 42.964 240.889 C 44.328 240.887 45.429 241.941 45.431 243.251 C 45.433 244.560 44.335 245.618 42.971 245.620 C 41.608 245.622 40.506 244.567 40.504 243.258 C 40.502 241.949 41.601 240.891 42.964 240.889 "/>
<path id="S2_2_2" fill="none" stroke="#5db4d1" stroke-width="1" stroke-linecap="round" stroke-linejoin="round" d="M 42.845 163.875 C 44.208 163.873 45.310 164.928 45.312 166.237 C 45.314 167.546 44.216 168.604 42.852 168.606 C 41.489 168.608 40.387 167.554 40.385 166.244 C 40.383 164.935 41.481 163.877 42.845 163.875 "/>
<path id="S1_2_2" fill="none" stroke="#5db4d1" stroke-width="1" stroke-linecap="round" stroke-linejoin="round" d="M 36.799 179.582 C 36.779 203.452 36.740 251.188 36.740 251.191 "/>
<path id="S2_3_2" fill="none" stroke="#5db4d1" stroke-width="1" stroke-linecap="round" stroke-linejoin="round" d="M 36.983 251.696 C 38.346 251.694 39.448 252.748 39.450 254.058 C 39.452 255.367 38.354 256.425 36.990 256.427 C 35.627 256.429 34.525 255.374 34.523 254.065 C 34.521 252.756 35.619 251.698 36.983 251.696 "/>
<path id="S2_2_2_2" fill="none" stroke="#5db4d1" stroke-width="1" stroke-linecap="round" stroke-linejoin="round" d="M 36.864 174.682 C 38.227 174.680 39.329 175.735 39.331 177.044 C 39.333 178.353 38.234 179.411 36.871 179.413 C 35.507 179.415 34.406 178.361 34.404 177.051 C 34.402 175.742 35.500 174.684 36.864 174.682 "/>
<path id="S1_2_2_2" fill="none" stroke="#5db4d1" stroke-width="1" stroke-linecap="round" stroke-linejoin="round" d="M 29.822 193.270 C 29.803 217.139 29.763 264.876 29.763 264.878 "/>
<path id="S2_3_2_2" fill="none" stroke="#5db4d1" stroke-width="1" stroke-linecap="round" stroke-linejoin="round" d="M 30.006 265.384 C 31.370 265.382 32.472 266.436 32.474 267.745 C 32.476 269.055 31.377 270.112 30.014 270.115 C 28.650 270.117 27.548 269.062 27.546 267.753 C 27.544 266.444 28.643 265.386 30.006 265.384 "/>
<path id="S2_2_2_2_2" fill="none" stroke="#5db4d1" stroke-width="1" stroke-linecap="round" stroke-linejoin="round" d="M 29.887 188.370 C 31.251 188.368 32.352 189.423 32.354 190.732 C 32.356 192.041 31.258 193.099 29.894 193.101 C 28.531 193.103 27.429 192.048 27.427 190.739 C 27.425 189.430 28.523 188.372 29.887 188.370 "/>
<path id="S1_2_2_2_2" fill="none" stroke="#5db4d1" stroke-width="1" stroke-linecap="round" stroke-linejoin="round" d="M 22.304 179.605 C 22.284 203.474 22.244 251.211 22.244 251.213 "/>
<path id="S2_3_2_2_2" fill="none" stroke="#5db4d1" stroke-width="1" stroke-linecap="round" stroke-linejoin="round" d="M 22.488 251.719 C 23.851 251.716 24.953 252.771 24.955 254.080 C 24.957 255.389 23.858 256.447 22.495 256.449 C 21.131 256.451 20.030 255.397 20.028 254.088 C 20.026 252.779 21.124 251.721 22.488 251.719 "/>
<path id="S2_2_2_2_2_2" fill="none" stroke="#5db4d1" stroke-width="1" stroke-linecap="round" stroke-linejoin="round" d="M 22.368 174.705 C 23.732 174.703 24.833 175.757 24.835 177.066 C 24.837 178.375 23.739 179.433 22.376 179.435 C 21.012 179.437 19.910 178.383 19.908 177.074 C 19.906 175.765 21.005 174.707 22.368 174.705 "/>
<path id="S1_2_2_2_2_2" fill="none" stroke="#5db4d1" stroke-width="1" stroke-linecap="round" stroke-linejoin="round" d="M 15.040 169.538 C 15.021 193.407 14.981 241.144 14.981 241.146 "/>
<path id="S2_3_2_2_2_2" fill="none" stroke="#5db4d1" stroke-width="1" stroke-linecap="round" stroke-linejoin="round" d="M 15.224 241.652 C 16.588 241.650 17.689 242.704 17.691 244.014 C 17.693 245.323 16.595 246.380 15.232 246.383 C 13.868 246.385 12.766 245.330 12.764 244.021 C 12.762 242.712 13.861 241.654 15.224 241.652 "/>
<path id="S2_2_2_2_2_2_2" fill="none" stroke="#5db4d1" stroke-width="1" stroke-linecap="round" stroke-linejoin="round" d="M 15.105 164.638 C 16.468 164.636 17.570 165.691 17.572 167.000 C 17.574 168.309 16.476 169.367 15.112 169.369 C 13.749 169.371 12.647 168.316 12.645 167.007 C 12.643 165.698 13.741 164.640 15.105 164.638 "/>
<path id="S1_2_2_2_2_2_2" fill="none" stroke="#5db4d1" stroke-width="1" stroke-linecap="round" stroke-linejoin="round" d="M 8.278 160.430 C 8.259 184.300 8.219 232.036 8.219 232.039 "/>
<path id="S2_3_2_2_2_2_2" fill="none" stroke="#5db4d1" stroke-width="1" stroke-linecap="round" stroke-linejoin="round" d="M 8.462 232.544 C 9.826 232.542 10.927 233.597 10.929 234.906 C 10.932 236.215 9.833 237.273 8.470 237.275 C 7.106 237.277 6.004 236.223 6.002 234.914 C 6.000 233.604 7.099 232.546 8.462 232.544 "/>
<path id="S2_2_2_2_2_2_2_2" fill="none" stroke="#5db4d1" stroke-width="1" stroke-linecap="round" stroke-linejoin="round" d="M 8.343 155.531 C 9.707 155.529 10.808 156.583 10.810 157.892 C 10.812 159.201 9.714 160.259 8.350 160.261 C 6.987 160.263 5.885 159.209 5.883 157.900 C 5.881 156.591 6.979 155.533 8.343 155.531 "/>
</g>
</g>
</svg>
