<?xml version="1.0" encoding="utf-8"?>
<!-- Generator: Moho 14.1 build 20231027 -->
<!DOCTYPE svg PUBLIC "-//W3C//DTD SVG 1.1//EN" "http://www.w3.org/Graphics/SVG/1.1/DTD/svg11.dtd">
<svg version="1.1" id="Frame_0" xmlns="http://www.w3.org/2000/svg" xmlns:xlink="http://www.w3.org/1999/xlink" width="320px" height="240px">
<g id="Layer_7">
<g id="shesterenka1_2">
<path id="S1" fill="none" stroke="#5db4d1" stroke-width="3" stroke-opacity="0.749020" stroke-linecap="round" stroke-linejoin="round" d="M 239.526 129.852 C 241.613 121.649 249.031 115.606 257.896 115.606 C 268.388 115.606 276.852 124.070 276.852 134.562 C 276.852 136.726 276.492 138.803 275.829 140.738 C 280.028 141.227 284.302 141.478 288.636 141.478 C 298.515 141.478 308.081 140.172 317.171 137.722 C 315.797 135.095 315.021 132.104 315.021 128.927 C 315.021 118.434 323.485 109.970 333.977 109.970 C 341.870 109.970 348.616 114.761 351.473 121.602 C 361.519 114.506 370.303 105.749 377.430 95.726 C 370.559 92.883 365.741 86.122 365.741 78.206 C 365.741 67.714 374.205 59.250 384.697 59.250 C 387.941 59.250 390.990 60.059 393.656 61.486 C 396.166 52.294 397.505 42.612 397.505 32.609 C 397.505 29.646 397.388 26.711 397.157 23.808 C 395.632 24.202 394.032 24.411 392.382 24.411 C 381.890 24.411 373.426 15.947 373.426 5.455 C 373.426 -3.389 379.440 -10.792 387.614 -12.899 C 382.341 -24.385 375.130 -34.786 366.396 -43.688 C 363.000 -38.610 357.213 -35.275 350.627 -35.275 C 340.135 -35.275 331.671 -43.739 331.671 -54.231 C 331.671 -58.555 333.109 -62.535 335.534 -65.719 C 322.567 -71.896 308.174 -75.586 292.968 -76.177 C 292.983 -75.865 292.991 -75.552 292.991 -75.236 C 292.990 -64.744 284.526 -56.280 274.034 -56.280 C 264.943 -56.280 257.374 -62.636 255.515 -71.159 C 243.858 -67.457 233.061 -61.852 223.486 -54.705 C 225.794 -51.564 227.156 -47.681 227.156 -43.472 C 227.156 -32.980 218.692 -24.516 208.200 -24.516 C 204.370 -24.516 200.811 -25.644 197.834 -27.586 C 191.781 -18.457 187.069 -8.355 183.977 2.440 C 190.975 5.224 195.904 12.050 195.904 20.057 C 195.904 29.532 189.002 37.353 179.937 38.780 C 180.687 52.296 183.887 65.144 189.103 76.888 C 192.274 74.498 196.225 73.083 200.515 73.083 C 211.007 73.083 219.471 81.547 219.471 92.039 C 219.471 98.954 215.795 104.988 210.285 108.298 C 218.710 117.020 228.585 124.332 239.526 129.852 "/>
<path id="S11" fill="none" stroke="#5db4d1" stroke-width="3" stroke-opacity="0.749020" stroke-linecap="round" stroke-linejoin="round" d="M 362.155 32.609 C 362.155 -8.225 329.214 -41.167 288.380 -41.167 C 247.545 -41.167 214.604 -8.225 214.604 32.609 C 214.604 73.443 247.545 106.384 288.380 106.384 C 329.214 106.384 362.155 73.443 362.155 32.609 "/>
<path id="S12" fill="none" stroke="#5db4d1" stroke-width="3" stroke-opacity="0.749020" stroke-linecap="round" stroke-linejoin="round" d="M 349.347 32.352 C 349.347 -1.392 322.124 -28.614 288.380 -28.614 C 254.635 -28.614 227.413 -1.392 227.413 32.352 C 227.413 66.097 254.635 93.320 288.380 93.320 C 322.124 93.320 349.347 66.097 349.347 32.352 "/>
<path id="S13" fill="none" stroke="#5db4d1" stroke-width="3" stroke-opacity="0.749020" stroke-linecap="round" stroke-linejoin="round" d="M 315.021 31.584 C 315.021 16.838 303.125 4.943 288.380 4.943 C 273.634 4.943 261.739 16.838 261.739 31.584 C 261.739 46.330 273.634 58.225 288.380 58.225 C 303.125 58.225 315.021 46.330 315.021 31.584 "/>
</g>
<g id="shesterenka1_3">
<path id="S1" fill="none" stroke="#5db4d1" stroke-width="2" stroke-opacity="0.749020" stroke-linecap="round" stroke-linejoin="round" d="M 207.707 268.004 C 209.127 262.421 214.175 258.308 220.209 258.308 C 227.349 258.308 233.110 264.068 233.110 271.209 C 233.110 272.682 232.865 274.095 232.413 275.412 C 235.272 275.745 238.180 275.916 241.130 275.916 C 247.853 275.916 254.364 275.027 260.550 273.359 C 259.615 271.572 259.087 269.536 259.087 267.373 C 259.087 260.233 264.847 254.472 271.988 254.472 C 277.360 254.472 281.951 257.733 283.896 262.388 C 290.733 257.559 296.711 251.599 301.562 244.778 C 296.885 242.843 293.607 238.241 293.607 232.854 C 293.607 225.713 299.367 219.953 306.508 219.953 C 308.715 219.953 310.791 220.503 312.605 221.475 C 314.313 215.219 315.225 208.629 315.225 201.821 C 315.225 199.804 315.145 197.807 314.988 195.832 C 313.950 196.099 312.861 196.242 311.738 196.242 C 304.597 196.242 298.837 190.482 298.837 183.341 C 298.837 177.322 302.930 172.283 308.493 170.849 C 304.904 163.032 299.996 155.953 294.052 149.895 C 291.741 153.351 287.802 155.620 283.320 155.620 C 276.180 155.620 270.419 149.860 270.419 142.719 C 270.419 139.776 271.397 137.068 273.048 134.900 C 264.223 130.697 254.427 128.185 244.078 127.783 C 244.088 127.995 244.093 128.209 244.093 128.423 C 244.093 135.564 238.333 141.325 231.192 141.324 C 225.005 141.324 219.853 136.999 218.588 131.198 C 210.655 133.717 203.306 137.533 196.789 142.397 C 198.361 144.534 199.288 147.177 199.288 150.042 C 199.288 157.182 193.527 162.943 186.387 162.943 C 183.780 162.943 181.357 162.175 179.332 160.853 C 175.212 167.067 172.005 173.941 169.900 181.289 C 174.663 183.184 178.018 187.829 178.018 193.278 C 178.018 199.727 173.320 205.050 167.151 206.021 C 167.662 215.220 169.840 223.964 173.389 231.957 C 175.548 230.330 178.237 229.367 181.156 229.367 C 188.297 229.367 194.058 235.128 194.057 242.268 C 194.057 246.974 191.555 251.081 187.805 253.334 C 193.539 259.270 200.260 264.246 207.707 268.004 "/>
<path id="S11" fill="none" stroke="#5db4d1" stroke-width="2" stroke-opacity="0.749020" stroke-linecap="round" stroke-linejoin="round" d="M 291.166 201.821 C 291.166 174.030 268.746 151.611 240.955 151.611 C 213.164 151.611 190.745 174.030 190.745 201.821 C 190.745 229.612 213.164 252.031 240.955 252.031 C 268.746 252.031 291.166 229.612 291.166 201.821 "/>
<path id="S12" fill="none" stroke="#5db4d1" stroke-width="2" stroke-opacity="0.749020" stroke-linecap="round" stroke-linejoin="round" d="M 282.449 201.647 C 282.449 178.680 263.922 160.153 240.955 160.153 C 217.989 160.153 199.462 178.680 199.462 201.647 C 199.462 224.613 217.989 243.140 240.955 243.140 C 263.922 243.140 282.449 224.613 282.449 201.647 "/>
<path id="S13" fill="none" stroke="#5db4d1" stroke-width="2" stroke-opacity="0.749020" stroke-linecap="round" stroke-linejoin="round" d="M 259.087 201.124 C 259.087 191.088 250.991 182.992 240.955 182.992 C 230.920 182.992 222.824 191.088 222.824 201.124 C 222.824 211.159 230.920 219.255 240.955 219.255 C 250.991 219.255 259.087 211.159 259.087 201.124 "/>
</g>
</g>
</svg>
