<?xml version="1.0" encoding="utf-8"?>
<!-- Generator: Moho 14.1 build 20231027 -->
<!DOCTYPE svg PUBLIC "-//W3C//DTD SVG 1.1//EN" "http://www.w3.org/Graphics/SVG/1.1/DTD/svg11.dtd">
<svg version="1.1" id="Frame_0" xmlns="http://www.w3.org/2000/svg" xmlns:xlink="http://www.w3.org/1999/xlink" width="426px" height="240px">
<g id="Main">
<clipPath id="bb560f36-cfbd-4334-9ac4-8f3ec76c0f69">
<path id="S1" fill="#8ecef4" fill-rule="evenodd" stroke="none" d="M 80.021 247.262 C 80.019 247.260 67.963 225.819 59.462 220.182 C 51.180 214.689 33.472 219.786 27.378 211.935 C 17.918 199.748 34.454 175.686 31.038 160.643 C 27.419 144.706 3.477 129.741 3.909 113.404 C 4.439 93.376 32.210 75.970 41.600 58.271 C 49.156 44.029 48.156 17.323 61.569 8.377 C 88.388 -9.510 136.323 24.784 168.307 20.759 C 183.604 18.835 201.493 5.116 216.865 3.932 C 239.116 2.218 267.460 18.377 289.775 18.695 C 308.873 18.968 336.032 -1.347 352.571 8.207 C 369.085 17.747 365.866 50.924 374.839 67.754 C 384.116 85.156 413.501 101.437 413.174 121.155 C 412.813 142.838 376.687 157.820 368.275 177.809 C 363.968 188.040 369.283 205.651 362.371 214.336 C 353.658 225.282 328.782 221.035 318.723 230.758 C 314.492 234.849 310.047 248.350 310.046 248.351 C 310.023 248.351 80.044 247.262 80.021 247.262 Z"/>
</clipPath>
<radialGradient id="39fb6405-a9e0-4605-86cc-efa6845595ac_0" cx="50.00%" cy="93.38%" r="125.69%">
<stop offset="0.00%" style="stop-color:rgb(160,255,200);stop-opacity:1.00" />
<stop offset="100.00%" style="stop-color:rgb(150,229,255);stop-opacity:1.00" />
</radialGradient>
<path id="S1" fill="url(#39fb6405-a9e0-4605-86cc-efa6845595ac_0)" fill-rule="evenodd" stroke="none" d="M -19.320 -8.787 C -19.274 -8.787 444.263 -8.787 444.309 -8.787 C 444.309 -8.760 444.309 262.192 444.309 262.219 C 444.263 262.219 -19.274 262.219 -19.320 262.219 C -19.320 262.192 -19.320 -8.760 -19.320 -8.787 Z" clip-path="url(#bb560f36-cfbd-4334-9ac4-8f3ec76c0f69)"/>
<path id="S1" fill="#a2b2af" fill-rule="evenodd" stroke="none" d="M 29.317 110.102 C 29.322 110.102 87.173 110.102 87.179 110.102 C 87.179 110.116 87.694 250.755 87.694 250.769 C 87.688 250.769 30.095 250.769 30.089 250.769 C 30.089 250.755 29.317 110.116 29.317 110.102 Z" clip-path="url(#bb560f36-cfbd-4334-9ac4-8f3ec76c0f69)"/>
<path id="S2" fill="#a2b2af" fill-rule="evenodd" stroke="none" d="M 97.861 88.293 C 97.866 88.293 145.927 88.293 145.932 88.293 C 145.932 88.308 145.932 240.055 145.932 240.070 C 145.927 240.070 97.866 240.070 97.861 240.070 C 97.861 240.055 97.861 88.308 97.861 88.293 Z" clip-path="url(#bb560f36-cfbd-4334-9ac4-8f3ec76c0f69)"/>
<path id="S3" fill="#a2b2af" fill-rule="evenodd" stroke="none" d="M 154.389 156.392 C 154.401 156.392 276.333 156.392 276.345 156.392 C 276.345 156.401 276.345 242.287 276.345 242.296 C 276.333 242.296 154.401 242.296 154.389 242.296 C 154.389 242.287 154.389 156.401 154.389 156.392 Z" clip-path="url(#bb560f36-cfbd-4334-9ac4-8f3ec76c0f69)"/>
<path id="S4" fill="#a2b2af" fill-rule="evenodd" stroke="none" d="M 285.692 90.963 C 285.696 90.963 326.637 90.963 326.641 90.963 C 326.641 90.978 326.641 243.171 326.641 243.186 C 326.637 243.186 285.696 243.186 285.692 243.186 C 285.692 243.171 285.692 90.978 285.692 90.963 Z" clip-path="url(#bb560f36-cfbd-4334-9ac4-8f3ec76c0f69)"/>
<path id="S5" fill="#a2b2af" fill-rule="evenodd" stroke="none" d="M 333.762 103.426 C 333.766 103.426 376.487 103.426 376.491 103.426 C 376.491 103.440 376.491 248.513 376.491 248.527 C 376.487 248.527 333.766 248.527 333.762 248.527 C 333.762 248.513 333.762 103.440 333.762 103.426 Z" clip-path="url(#bb560f36-cfbd-4334-9ac4-8f3ec76c0f69)"/>
<path id="S6" fill="none" stroke="#878787" stroke-width="6" stroke-linejoin="round" d="M 34.554 121.548 C 50.524 121.548 82.462 121.548 82.463 121.548 " clip-path="url(#bb560f36-cfbd-4334-9ac4-8f3ec76c0f69)"/>
<path id="S6_2" fill="none" stroke="#878787" stroke-width="6" stroke-linejoin="round" d="M 34.296 131.078 C 50.266 131.078 82.204 131.078 82.206 131.078 " clip-path="url(#bb560f36-cfbd-4334-9ac4-8f3ec76c0f69)"/>
<path id="S6_3" fill="none" stroke="#878787" stroke-width="6" stroke-linejoin="round" d="M 34.296 140.351 C 50.266 140.351 82.204 140.351 82.206 140.351 " clip-path="url(#bb560f36-cfbd-4334-9ac4-8f3ec76c0f69)"/>
<path id="S6_2_2" fill="none" stroke="#878787" stroke-width="6" stroke-linejoin="round" d="M 34.039 149.882 C 50.009 149.882 81.947 149.882 81.948 149.882 " clip-path="url(#bb560f36-cfbd-4334-9ac4-8f3ec76c0f69)"/>
<path id="S6_4" fill="none" stroke="#878787" stroke-width="6" stroke-linejoin="round" d="M 33.781 159.154 C 49.751 159.154 81.689 159.154 81.691 159.154 " clip-path="url(#bb560f36-cfbd-4334-9ac4-8f3ec76c0f69)"/>
<path id="S6_2_3" fill="none" stroke="#878787" stroke-width="6" stroke-linejoin="round" d="M 33.524 168.685 C 49.493 168.685 81.431 168.685 81.433 168.685 " clip-path="url(#bb560f36-cfbd-4334-9ac4-8f3ec76c0f69)"/>
<path id="S6_3_2" fill="none" stroke="#878787" stroke-width="6" stroke-linejoin="round" d="M 35.327 177.700 C 51.296 177.700 83.234 177.700 83.236 177.700 " clip-path="url(#bb560f36-cfbd-4334-9ac4-8f3ec76c0f69)"/>
<path id="S6_2_2_2" fill="none" stroke="#878787" stroke-width="6" stroke-linejoin="round" d="M 35.327 187.488 C 51.296 187.488 83.234 187.488 83.236 187.488 " clip-path="url(#bb560f36-cfbd-4334-9ac4-8f3ec76c0f69)"/>
<path id="S6_5" fill="none" stroke="#878787" stroke-width="6" stroke-linejoin="round" d="M 34.812 196.761 C 50.781 196.761 82.719 196.761 82.721 196.761 " clip-path="url(#bb560f36-cfbd-4334-9ac4-8f3ec76c0f69)"/>
<path id="S6_2_4" fill="none" stroke="#878787" stroke-width="6" stroke-linejoin="round" d="M 35.327 206.291 C 51.296 206.291 83.234 206.291 83.236 206.291 " clip-path="url(#bb560f36-cfbd-4334-9ac4-8f3ec76c0f69)"/>
<path id="S6_3_3" fill="none" stroke="#878787" stroke-width="6" stroke-linejoin="round" d="M 35.069 216.079 C 51.039 216.079 82.977 216.079 82.978 216.079 " clip-path="url(#bb560f36-cfbd-4334-9ac4-8f3ec76c0f69)"/>
<path id="S6_2_2_3" fill="none" stroke="#878787" stroke-width="6" stroke-linejoin="round" d="M 35.327 225.610 C 51.296 225.610 83.234 225.610 83.236 225.610 " clip-path="url(#bb560f36-cfbd-4334-9ac4-8f3ec76c0f69)"/>
<path id="S6_6" fill="none" stroke="#878787" stroke-width="6" stroke-linejoin="round" d="M 103.331 96.820 C 116.171 96.820 141.849 96.820 141.850 96.820 " clip-path="url(#bb560f36-cfbd-4334-9ac4-8f3ec76c0f69)"/>
<path id="S6_2_5" fill="none" stroke="#878787" stroke-width="6" stroke-linejoin="round" d="M 103.124 106.351 C 115.964 106.351 141.642 106.351 141.643 106.351 " clip-path="url(#bb560f36-cfbd-4334-9ac4-8f3ec76c0f69)"/>
<path id="S6_3_4" fill="none" stroke="#878787" stroke-width="6" stroke-linejoin="round" d="M 103.124 115.624 C 115.964 115.624 141.642 115.624 141.643 115.624 " clip-path="url(#bb560f36-cfbd-4334-9ac4-8f3ec76c0f69)"/>
<path id="S6_2_2_4" fill="none" stroke="#878787" stroke-width="6" stroke-linejoin="round" d="M 102.917 125.154 C 115.757 125.154 141.435 125.154 141.436 125.154 " clip-path="url(#bb560f36-cfbd-4334-9ac4-8f3ec76c0f69)"/>
<path id="S6_4_2" fill="none" stroke="#878787" stroke-width="6" stroke-linejoin="round" d="M 102.710 134.427 C 115.549 134.427 141.228 134.427 141.229 134.427 " clip-path="url(#bb560f36-cfbd-4334-9ac4-8f3ec76c0f69)"/>
<path id="S6_2_3_2" fill="none" stroke="#878787" stroke-width="6" stroke-linejoin="round" d="M 102.503 143.957 C 115.342 143.957 141.021 143.957 141.022 143.957 " clip-path="url(#bb560f36-cfbd-4334-9ac4-8f3ec76c0f69)"/>
<path id="S6_3_2_2" fill="none" stroke="#878787" stroke-width="6" stroke-linejoin="round" d="M 102.503 153.230 C 115.342 153.230 141.021 153.230 141.022 153.230 " clip-path="url(#bb560f36-cfbd-4334-9ac4-8f3ec76c0f69)"/>
<path id="S6_5_2" fill="none" stroke="#878787" stroke-width="6" stroke-linejoin="round" d="M 102.503 163.018 C 115.342 163.018 141.021 163.018 141.022 163.018 " clip-path="url(#bb560f36-cfbd-4334-9ac4-8f3ec76c0f69)"/>
<path id="S6_2_4_2" fill="none" stroke="#878787" stroke-width="6" stroke-linejoin="round" d="M 102.295 172.549 C 115.135 172.549 140.813 172.549 140.815 172.549 " clip-path="url(#bb560f36-cfbd-4334-9ac4-8f3ec76c0f69)"/>
<path id="S6_3_3_2" fill="none" stroke="#878787" stroke-width="6" stroke-linejoin="round" d="M 102.295 181.821 C 115.135 181.821 140.813 181.821 140.815 181.821 " clip-path="url(#bb560f36-cfbd-4334-9ac4-8f3ec76c0f69)"/>
<path id="S6_2_2_3_2" fill="none" stroke="#878787" stroke-width="6" stroke-linejoin="round" d="M 102.088 191.352 C 114.928 191.352 140.606 191.352 140.608 191.352 " clip-path="url(#bb560f36-cfbd-4334-9ac4-8f3ec76c0f69)"/>
<path id="S6_5_2_2" fill="none" stroke="#878787" stroke-width="6" stroke-linejoin="round" d="M 102.245 200.882 C 115.085 200.882 140.763 200.882 140.764 200.882 " clip-path="url(#bb560f36-cfbd-4334-9ac4-8f3ec76c0f69)"/>
<path id="S6_2_4_2_2" fill="none" stroke="#878787" stroke-width="6" stroke-linejoin="round" d="M 102.038 210.413 C 114.878 210.413 140.556 210.413 140.557 210.413 " clip-path="url(#bb560f36-cfbd-4334-9ac4-8f3ec76c0f69)"/>
<path id="S6_3_3_2_2" fill="none" stroke="#878787" stroke-width="6" stroke-linejoin="round" d="M 102.038 219.685 C 114.878 219.685 140.556 219.685 140.557 219.685 " clip-path="url(#bb560f36-cfbd-4334-9ac4-8f3ec76c0f69)"/>
<path id="S6_2_2_3_2_2" fill="none" stroke="#878787" stroke-width="6" stroke-linejoin="round" d="M 101.831 229.216 C 114.671 229.216 140.349 229.216 140.350 229.216 " clip-path="url(#bb560f36-cfbd-4334-9ac4-8f3ec76c0f69)"/>
<path id="S6_6_2" fill="none" stroke="#878787" stroke-width="6" stroke-linejoin="round" d="M 289.578 98.881 C 300.806 98.881 323.261 98.881 323.262 98.881 " clip-path="url(#bb560f36-cfbd-4334-9ac4-8f3ec76c0f69)"/>
<path id="S6_2_5_2" fill="none" stroke="#878787" stroke-width="6" stroke-linejoin="round" d="M 289.397 108.411 C 300.625 108.411 323.080 108.411 323.081 108.411 " clip-path="url(#bb560f36-cfbd-4334-9ac4-8f3ec76c0f69)"/>
<path id="S6_3_4_2" fill="none" stroke="#878787" stroke-width="6" stroke-linejoin="round" d="M 289.397 117.684 C 300.625 117.684 323.080 117.684 323.081 117.684 " clip-path="url(#bb560f36-cfbd-4334-9ac4-8f3ec76c0f69)"/>
<path id="S6_2_2_4_2" fill="none" stroke="#878787" stroke-width="6" stroke-linejoin="round" d="M 289.215 127.215 C 300.443 127.215 322.898 127.215 322.900 127.215 " clip-path="url(#bb560f36-cfbd-4334-9ac4-8f3ec76c0f69)"/>
<path id="S6_4_2_2" fill="none" stroke="#878787" stroke-width="6" stroke-linejoin="round" d="M 289.034 136.487 C 300.262 136.487 322.717 136.487 322.719 136.487 " clip-path="url(#bb560f36-cfbd-4334-9ac4-8f3ec76c0f69)"/>
<path id="S6_2_3_2_2" fill="none" stroke="#878787" stroke-width="6" stroke-linejoin="round" d="M 288.853 146.018 C 300.081 146.018 322.536 146.018 322.537 146.018 " clip-path="url(#bb560f36-cfbd-4334-9ac4-8f3ec76c0f69)"/>
<path id="S6_3_2_2_2" fill="none" stroke="#878787" stroke-width="6" stroke-linejoin="round" d="M 288.853 155.291 C 300.081 155.291 322.536 155.291 322.537 155.291 " clip-path="url(#bb560f36-cfbd-4334-9ac4-8f3ec76c0f69)"/>
<path id="S6_5_2_3" fill="none" stroke="#878787" stroke-width="6" stroke-linejoin="round" d="M 288.853 165.079 C 300.081 165.079 322.536 165.079 322.537 165.079 " clip-path="url(#bb560f36-cfbd-4334-9ac4-8f3ec76c0f69)"/>
<path id="S6_2_4_2_3" fill="none" stroke="#878787" stroke-width="6" stroke-linejoin="round" d="M 288.672 174.609 C 299.900 174.609 322.355 174.609 322.356 174.609 " clip-path="url(#bb560f36-cfbd-4334-9ac4-8f3ec76c0f69)"/>
<path id="S6_3_3_2_3" fill="none" stroke="#878787" stroke-width="6" stroke-linejoin="round" d="M 288.672 183.882 C 299.900 183.882 322.355 183.882 322.356 183.882 " clip-path="url(#bb560f36-cfbd-4334-9ac4-8f3ec76c0f69)"/>
<path id="S6_2_2_3_2_3" fill="none" stroke="#878787" stroke-width="6" stroke-linejoin="round" d="M 288.491 193.412 C 299.719 193.412 322.174 193.412 322.175 193.412 " clip-path="url(#bb560f36-cfbd-4334-9ac4-8f3ec76c0f69)"/>
<path id="S6_5_2_2_2" fill="none" stroke="#878787" stroke-width="6" stroke-linejoin="round" d="M 288.628 202.943 C 299.856 202.943 322.311 202.943 322.312 202.943 " clip-path="url(#bb560f36-cfbd-4334-9ac4-8f3ec76c0f69)"/>
<path id="S6_2_4_2_2_2" fill="none" stroke="#878787" stroke-width="6" stroke-linejoin="round" d="M 288.447 212.473 C 299.675 212.473 322.130 212.473 322.131 212.473 " clip-path="url(#bb560f36-cfbd-4334-9ac4-8f3ec76c0f69)"/>
<path id="S6_3_3_2_2_2" fill="none" stroke="#878787" stroke-width="6" stroke-linejoin="round" d="M 288.447 221.746 C 299.675 221.746 322.130 221.746 322.131 221.746 " clip-path="url(#bb560f36-cfbd-4334-9ac4-8f3ec76c0f69)"/>
<path id="S6_2_2_3_2_2_2" fill="none" stroke="#878787" stroke-width="6" stroke-linejoin="round" d="M 288.266 231.276 C 299.494 231.276 321.949 231.276 321.950 231.276 " clip-path="url(#bb560f36-cfbd-4334-9ac4-8f3ec76c0f69)"/>
<path id="S6_6_3" fill="none" stroke="#878787" stroke-width="6" stroke-linejoin="round" d="M 335.924 111.502 C 348.764 111.502 374.442 111.502 374.444 111.502 " clip-path="url(#bb560f36-cfbd-4334-9ac4-8f3ec76c0f69)"/>
<path id="S6_2_5_3" fill="none" stroke="#878787" stroke-width="6" stroke-linejoin="round" d="M 335.717 121.033 C 348.557 121.033 374.235 121.033 374.237 121.033 " clip-path="url(#bb560f36-cfbd-4334-9ac4-8f3ec76c0f69)"/>
<path id="S6_3_4_3" fill="none" stroke="#878787" stroke-width="6" stroke-linejoin="round" d="M 335.717 130.306 C 348.557 130.306 374.235 130.306 374.237 130.306 " clip-path="url(#bb560f36-cfbd-4334-9ac4-8f3ec76c0f69)"/>
<path id="S6_2_2_4_3" fill="none" stroke="#878787" stroke-width="6" stroke-linejoin="round" d="M 335.510 139.836 C 348.350 139.836 374.028 139.836 374.029 139.836 " clip-path="url(#bb560f36-cfbd-4334-9ac4-8f3ec76c0f69)"/>
<path id="S6_4_2_3" fill="none" stroke="#878787" stroke-width="6" stroke-linejoin="round" d="M 335.303 149.109 C 348.143 149.109 373.821 149.109 373.822 149.109 " clip-path="url(#bb560f36-cfbd-4334-9ac4-8f3ec76c0f69)"/>
<path id="S6_2_3_2_3" fill="none" stroke="#878787" stroke-width="6" stroke-linejoin="round" d="M 335.096 158.639 C 347.936 158.639 373.614 158.639 373.615 158.639 " clip-path="url(#bb560f36-cfbd-4334-9ac4-8f3ec76c0f69)"/>
<path id="S6_3_2_2_3" fill="none" stroke="#878787" stroke-width="6" stroke-linejoin="round" d="M 335.096 167.912 C 347.936 167.912 373.614 167.912 373.615 167.912 " clip-path="url(#bb560f36-cfbd-4334-9ac4-8f3ec76c0f69)"/>
<path id="S6_5_2_4" fill="none" stroke="#878787" stroke-width="6" stroke-linejoin="round" d="M 335.096 177.700 C 347.936 177.700 373.614 177.700 373.615 177.700 " clip-path="url(#bb560f36-cfbd-4334-9ac4-8f3ec76c0f69)"/>
<path id="S6_2_4_2_4" fill="none" stroke="#878787" stroke-width="6" stroke-linejoin="round" d="M 334.889 187.231 C 347.729 187.231 373.407 187.231 373.408 187.231 " clip-path="url(#bb560f36-cfbd-4334-9ac4-8f3ec76c0f69)"/>
<path id="S6_3_3_2_4" fill="none" stroke="#878787" stroke-width="6" stroke-linejoin="round" d="M 334.889 196.503 C 347.729 196.503 373.407 196.503 373.408 196.503 " clip-path="url(#bb560f36-cfbd-4334-9ac4-8f3ec76c0f69)"/>
<path id="S6_2_2_3_2_4" fill="none" stroke="#878787" stroke-width="6" stroke-linejoin="round" d="M 334.682 206.034 C 347.521 206.034 373.200 206.034 373.201 206.034 " clip-path="url(#bb560f36-cfbd-4334-9ac4-8f3ec76c0f69)"/>
<path id="S6_5_2_2_3" fill="none" stroke="#878787" stroke-width="6" stroke-linejoin="round" d="M 334.838 215.564 C 347.678 215.564 373.356 215.564 373.358 215.564 " clip-path="url(#bb560f36-cfbd-4334-9ac4-8f3ec76c0f69)"/>
<path id="S6_2_4_2_2_3" fill="none" stroke="#878787" stroke-width="6" stroke-linejoin="round" d="M 334.631 225.095 C 347.471 225.095 373.149 225.095 373.150 225.095 " clip-path="url(#bb560f36-cfbd-4334-9ac4-8f3ec76c0f69)"/>
<path id="S6_3_3_2_2_3" fill="none" stroke="#878787" stroke-width="6" stroke-linejoin="round" d="M 334.631 234.367 C 347.471 234.367 373.149 234.367 373.150 234.367 " clip-path="url(#bb560f36-cfbd-4334-9ac4-8f3ec76c0f69)"/>
<path id="S6_2_2_3_2_2_3" fill="none" stroke="#878787" stroke-width="6" stroke-linejoin="round" d="M 334.424 243.898 C 347.264 243.898 372.942 243.898 372.943 243.898 " clip-path="url(#bb560f36-cfbd-4334-9ac4-8f3ec76c0f69)"/>
<path id="S6_2_5_4" fill="none" stroke="#878787" stroke-width="6" stroke-linejoin="round" d="M 161.249 167.461 C 196.734 167.461 267.700 167.461 267.704 167.461 " clip-path="url(#bb560f36-cfbd-4334-9ac4-8f3ec76c0f69)"/>
<path id="S6_3_4_4" fill="none" stroke="#878787" stroke-width="6" stroke-linejoin="round" d="M 164.066 178.344 C 199.551 178.344 270.517 178.344 270.521 178.344 " clip-path="url(#bb560f36-cfbd-4334-9ac4-8f3ec76c0f69)"/>
<path id="S6_2_2_4_4" fill="none" stroke="#878787" stroke-width="6" stroke-linejoin="round" d="M 159.469 187.874 C 194.954 187.874 265.920 187.874 265.924 187.874 " clip-path="url(#bb560f36-cfbd-4334-9ac4-8f3ec76c0f69)"/>
<path id="S6_4_2_4" fill="none" stroke="#878787" stroke-width="6" stroke-linejoin="round" d="M 164.129 197.952 C 199.614 197.952 270.580 197.952 270.584 197.952 " clip-path="url(#bb560f36-cfbd-4334-9ac4-8f3ec76c0f69)"/>
<path id="S6_2_3_2_4" fill="none" stroke="#878787" stroke-width="6" stroke-linejoin="round" d="M 159.532 207.483 C 195.017 207.483 265.983 207.483 265.987 207.483 " clip-path="url(#bb560f36-cfbd-4334-9ac4-8f3ec76c0f69)"/>
<path id="S6_3_2_2_4" fill="none" stroke="#878787" stroke-width="6" stroke-linejoin="round" d="M 163.557 216.755 C 199.042 216.755 270.008 216.755 270.011 216.755 " clip-path="url(#bb560f36-cfbd-4334-9ac4-8f3ec76c0f69)"/>
<path id="S6_5_2_5" fill="none" stroke="#878787" stroke-width="6" stroke-linejoin="round" d="M 159.935 226.543 C 195.420 226.543 266.386 226.543 266.389 226.543 " clip-path="url(#bb560f36-cfbd-4334-9ac4-8f3ec76c0f69)"/>
<path id="S6_2_4_2_5" fill="none" stroke="#878787" stroke-width="6" stroke-linejoin="round" d="M 163.387 236.476 C 198.872 236.476 269.838 236.476 269.841 236.476 " clip-path="url(#bb560f36-cfbd-4334-9ac4-8f3ec76c0f69)"/>
<g id="sky1">
<path id="S1" fill="#ffffff" fill-rule="evenodd" stroke="#a1c4ff" stroke-width="1" stroke-linecap="round" stroke-linejoin="round" d="M 72.208 10.428 C 77.391 8.709 82.848 11.587 84.528 16.670 C 86.208 21.752 83.541 27.310 78.357 29.023 C 73.183 30.733 67.743 27.865 66.060 22.795 C 64.374 17.714 67.026 12.146 72.208 10.428 Z"/>
<path id="S2" fill="#ffffff" fill-rule="evenodd" stroke="#a1c4ff" stroke-width="1" stroke-linecap="round" stroke-linejoin="round" d="M 83.387 11.182 C 86.670 9.999 90.474 11.618 91.738 15.165 C 92.898 18.423 91.197 21.687 88.243 22.932 C 84.970 24.313 80.900 23.068 79.498 19.501 C 78.132 16.029 80.135 12.355 83.387 11.182 Z"/>
<path id="S3" fill="#ffffff" fill-rule="evenodd" stroke="none" d="M 80.898 17.459 C 85.711 15.547 89.821 16.819 91.033 19.844 C 92.253 22.891 90.205 26.871 85.316 28.685 C 80.469 30.483 76.409 28.808 75.328 25.738 C 74.293 22.802 76.301 19.284 80.898 17.459 Z"/>
<path id="S3" fill="none" stroke="#a1c4ff" stroke-width="1" stroke-linecap="round" stroke-linejoin="round" d="M 91.033 19.844 C 92.253 22.891 90.205 26.871 85.316 28.685 C 80.469 30.483 76.409 28.808 75.328 25.738 "/>
<path id="S4" fill="#ffffff" fill-rule="evenodd" stroke="none" d="M 74.347 22.780 C 79.292 21.640 81.885 22.838 82.471 24.920 C 83.076 27.065 81.462 29.743 76.398 31.055 C 71.146 32.415 68.269 30.780 67.771 28.523 C 67.284 26.319 69.181 23.971 74.347 22.780 Z"/>
<path id="S4" fill="none" stroke="#a1c4ff" stroke-width="1" stroke-linecap="round" stroke-linejoin="round" d="M 82.471 24.920 C 83.076 27.065 81.462 29.743 76.398 31.055 C 71.146 32.415 68.269 30.780 67.771 28.523 C 67.284 26.319 69.181 23.971 74.347 22.780 "/>
<path id="S5" fill="#ffffff" fill-rule="evenodd" stroke="none" d="M 66.405 20.541 C 71.288 19.396 75.456 21.235 76.498 24.759 C 77.074 26.709 76.073 28.659 73.731 30.157 C 68.025 33.807 60.802 33.697 59.170 29.019 C 57.929 25.463 61.402 21.715 66.405 20.541 Z"/>
<path id="S5" fill="none" stroke="#a1c4ff" stroke-width="1" stroke-linecap="round" stroke-linejoin="round" d="M 66.405 20.541 C 71.288 19.396 75.456 21.235 76.498 24.759 M 73.731 30.157 C 68.025 33.807 60.802 33.697 59.170 29.019 C 57.929 25.463 61.402 21.715 66.405 20.541 "/>
<path id="S6" fill="#ffffff" fill-rule="evenodd" stroke="none" d="M 60.100 26.884 C 63.134 26.235 66.168 27.235 66.680 29.733 C 67.300 32.757 64.041 34.957 60.326 35.525 C 57.695 35.927 55.246 35.306 54.636 33.205 C 53.803 30.332 56.543 27.645 60.100 26.884 Z"/>
<path id="S6" fill="none" stroke="#a1c4ff" stroke-width="1" stroke-linecap="round" stroke-linejoin="round" d="M 66.680 29.733 C 67.300 32.757 64.041 34.957 60.326 35.525 C 57.695 35.927 55.246 35.306 54.636 33.205 C 53.803 30.332 56.543 27.645 60.100 26.884 "/>
<path id="S7" fill="#ffffff" fill-rule="evenodd" stroke="none" d="M 92.599 14.457 C 96.638 12.421 101.156 12.771 102.546 15.987 C 103.524 18.247 101.889 20.607 99.185 22.283 C 95.037 24.854 90.068 25.329 88.376 21.954 C 87.045 19.300 89.175 16.183 92.599 14.457 Z"/>
<path id="S7" fill="none" stroke="#a1c4ff" stroke-width="1" stroke-linecap="round" stroke-linejoin="round" d="M 92.599 14.457 C 96.638 12.421 101.156 12.771 102.546 15.987 C 103.524 18.247 101.889 20.607 99.185 22.283 C 95.037 24.854 90.068 25.329 88.376 21.954 "/>
<path id="S8" fill="#ffffff" fill-rule="evenodd" stroke="none" d="M 102.035 17.361 C 103.534 16.470 105.616 16.574 106.352 18.134 C 106.792 19.067 106.252 20.032 105.381 20.606 C 103.882 21.595 101.693 21.642 100.908 20.050 C 100.407 19.034 101.050 17.947 102.035 17.361 Z"/>
<path id="S8" fill="none" stroke="#a1c4ff" stroke-width="1" stroke-linecap="round" stroke-linejoin="round" d="M 102.035 17.361 C 103.534 16.470 105.616 16.574 106.352 18.134 C 106.792 19.067 106.252 20.032 105.381 20.606 C 103.882 21.595 101.693 21.642 100.908 20.050 "/>
<path id="S9" fill="#ffffff" fill-rule="evenodd" stroke="none" d="M 55.745 33.727 C 56.687 33.501 57.658 33.845 57.920 34.710 C 58.290 35.933 57.221 37.084 55.882 37.380 C 54.982 37.579 54.078 37.275 53.810 36.459 C 53.413 35.251 54.418 34.046 55.745 33.727 Z"/>
<path id="S9" fill="none" stroke="#a1c4ff" stroke-width="1" stroke-linecap="round" stroke-linejoin="round" d="M 57.920 34.710 C 58.290 35.933 57.221 37.084 55.882 37.380 C 54.982 37.579 54.078 37.275 53.810 36.459 C 53.413 35.251 54.418 34.046 55.745 33.727 "/>
<path id="S10" fill="#ffffff" fill-rule="evenodd" stroke="none" d="M 74.532 20.714 C 78.040 19.700 79.767 20.777 80.201 22.170 C 80.638 23.574 79.837 25.527 76.317 26.601 C 72.709 27.702 70.887 26.491 70.474 25.042 C 70.068 23.617 70.968 21.745 74.532 20.714 Z"/>
</g>
<g id="sky2">
<path id="S1" fill="#ffffff" fill-rule="evenodd" stroke="none" d="M 342.077 12.706 C 346.590 14.784 348.608 19.677 346.799 23.606 C 344.990 27.536 339.960 29.184 335.447 27.106 C 330.934 25.028 328.916 20.136 330.725 16.206 C 332.534 12.277 337.563 10.629 342.077 12.706 Z"/>
<path id="S1" fill="none" stroke="#a1c4ff" stroke-width="1" stroke-linecap="round" stroke-linejoin="round" d="M 342.077 12.706 C 346.590 14.784 348.608 19.677 346.799 23.606 M 330.725 16.206 C 332.534 12.277 337.563 10.629 342.077 12.706 "/>
<path id="S2" fill="#ffffff" fill-rule="evenodd" stroke="none" d="M 344.637 17.779 C 350.207 18.450 354.031 24.071 352.494 28.242 C 351.314 31.443 346.925 32.726 342.981 30.910 C 339.037 29.094 337.911 25.241 338.823 21.948 C 339.502 19.499 341.456 17.396 344.637 17.779 Z"/>
<path id="S2" fill="none" stroke="#a1c4ff" stroke-width="1" stroke-linecap="round" stroke-linejoin="round" d="M 344.637 17.779 C 350.207 18.450 354.031 24.071 352.494 28.242 C 351.314 31.443 346.925 32.726 342.981 30.910 C 339.037 29.094 337.911 25.241 338.823 21.948 "/>
<path id="S3" fill="#ffffff" fill-rule="evenodd" stroke="none" d="M 335.601 13.920 C 339.288 15.618 340.867 19.487 339.479 22.502 C 338.091 25.516 334.125 26.833 330.438 25.135 C 326.750 23.438 325.171 19.569 326.559 16.554 C 327.947 13.539 331.913 12.223 335.601 13.920 Z"/>
<path id="S3" fill="none" stroke="#a1c4ff" stroke-width="1" stroke-linecap="round" stroke-linejoin="round" d="M 339.479 22.502 C 338.091 25.516 334.125 26.833 330.438 25.135 C 326.750 23.438 325.171 19.569 326.559 16.554 C 327.947 13.539 331.913 12.223 335.601 13.920 "/>
<path id="S4" fill="#ffffff" fill-rule="evenodd" stroke="none" d="M 329.767 14.926 C 332.940 16.387 334.249 19.625 333.115 22.089 C 331.980 24.553 328.670 25.664 325.496 24.203 C 322.322 22.742 321.014 19.504 322.148 17.040 C 323.282 14.576 326.593 13.465 329.767 14.926 Z"/>
<path id="S4" fill="none" stroke="#a1c4ff" stroke-width="1" stroke-linecap="round" stroke-linejoin="round" d="M 333.115 22.089 C 331.980 24.553 328.670 25.664 325.496 24.203 C 322.322 22.742 321.014 19.504 322.148 17.040 C 323.282 14.576 326.593 13.465 329.767 14.926 "/>
<path id="S5" fill="#ffffff" fill-rule="evenodd" stroke="none" d="M 324.331 16.451 C 327.232 17.787 328.045 20.050 327.360 21.537 C 326.676 23.024 324.428 23.879 321.526 22.543 C 318.625 21.207 317.812 18.944 318.497 17.457 C 319.182 15.970 321.430 15.115 324.331 16.451 Z"/>
<path id="S5" fill="none" stroke="#a1c4ff" stroke-width="1" stroke-linecap="round" stroke-linejoin="round" d="M 327.360 21.537 C 326.676 23.024 324.428 23.879 321.526 22.543 C 318.625 21.207 317.812 18.944 318.497 17.457 C 319.182 15.970 321.430 15.115 324.331 16.451 "/>
<path id="S6" fill="#ffffff" fill-rule="evenodd" stroke="none" d="M 318.561 17.318 C 321.951 19.007 322.266 20.973 321.646 21.930 C 321.093 22.784 319.619 23.079 316.648 21.472 C 313.654 19.852 313.120 18.458 313.548 17.528 C 313.977 16.598 315.513 15.800 318.561 17.318 Z"/>
<path id="S6" fill="none" stroke="#a1c4ff" stroke-width="1" stroke-linecap="round" stroke-linejoin="round" d="M 321.646 21.930 C 321.093 22.784 319.619 23.079 316.648 21.472 C 313.654 19.852 313.120 18.458 313.548 17.528 C 313.977 16.598 315.513 15.800 318.561 17.318 "/>
<path id="S7" fill="#ffffff" fill-rule="evenodd" stroke="none" d="M 314.213 17.666 C 316.482 18.711 317.055 19.798 316.826 20.295 C 316.597 20.792 315.398 21.064 313.129 20.020 C 310.861 18.975 310.288 17.887 310.517 17.390 C 310.745 16.894 311.944 16.621 314.213 17.666 Z"/>
<path id="S7" fill="none" stroke="#a1c4ff" stroke-width="1" stroke-linecap="round" stroke-linejoin="round" d="M 316.826 20.295 C 316.597 20.792 315.398 21.064 313.129 20.020 C 310.861 18.975 310.288 17.887 310.517 17.390 C 310.745 16.894 311.944 16.621 314.213 17.666 "/>
<path id="S8" fill="#ffffff" fill-rule="evenodd" stroke="none" d="M 338.657 19.826 C 344.655 21.210 347.305 25.622 346.175 28.521 C 345.259 30.872 341.648 32.142 337.097 30.047 C 332.547 27.952 331.455 24.516 332.354 22.158 C 333.020 20.411 335.052 18.995 338.657 19.826 Z"/>
<path id="S8" fill="none" stroke="#a1c4ff" stroke-width="1" stroke-linecap="round" stroke-linejoin="round" d="M 338.657 19.826 C 344.655 21.210 347.305 25.622 346.175 28.521 C 345.259 30.872 341.648 32.142 337.097 30.047 C 332.547 27.952 331.455 24.516 332.354 22.158 "/>
<path id="S9" fill="#ffffff" fill-rule="evenodd" stroke="none" d="M 333.374 19.943 C 337.908 22.401 338.692 26.480 337.070 28.450 C 335.820 29.970 333.269 29.675 329.741 27.835 C 325.689 25.722 323.707 23.419 324.477 21.303 C 325.309 19.013 329.026 17.585 333.374 19.943 Z"/>
<path id="S9" fill="none" stroke="#a1c4ff" stroke-width="1" stroke-linecap="round" stroke-linejoin="round" d="M 337.070 28.450 C 335.820 29.970 333.269 29.675 329.741 27.835 C 325.689 25.722 323.707 23.419 324.477 21.303 "/>
<path id="S10" fill="#ffffff" fill-rule="evenodd" stroke="none" d="M 348.160 26.582 C 352.612 28.632 353.524 31.540 352.685 33.364 C 351.845 35.187 349.042 36.385 344.590 34.336 C 340.139 32.286 339.226 29.378 340.066 27.554 C 340.905 25.731 343.708 24.533 348.160 26.582 Z"/>
<path id="S10" fill="none" stroke="#a1c4ff" stroke-width="1" stroke-linecap="round" stroke-linejoin="round" d="M 348.160 26.582 C 352.612 28.632 353.524 31.540 352.685 33.364 C 351.845 35.187 349.042 36.385 344.590 34.336 C 340.139 32.286 339.226 29.378 340.066 27.554 "/>
<path id="S11" fill="#ffffff" fill-rule="evenodd" stroke="none" d="M 351.064 25.808 C 356.801 25.555 360.114 31.179 358.976 34.330 C 358.112 36.725 354.641 37.514 350.456 36.029 C 347.634 35.028 346.572 33.392 346.417 31.651 C 346.210 29.323 347.136 25.982 351.064 25.808 Z"/>
<path id="S11" fill="none" stroke="#a1c4ff" stroke-width="1" stroke-linecap="round" stroke-linejoin="round" d="M 351.064 25.808 C 356.801 25.555 360.114 31.179 358.976 34.330 C 358.112 36.725 354.641 37.514 350.456 36.029 C 347.634 35.028 346.572 33.392 346.417 31.651 "/>
<path id="S12" fill="#ffffff" fill-rule="evenodd" stroke="none" d="M 357.877 32.566 C 361.094 34.047 361.974 36.520 361.229 38.136 C 360.485 39.753 358.034 40.693 354.817 39.212 C 351.600 37.731 350.720 35.258 351.465 33.641 C 352.209 32.024 354.660 31.085 357.877 32.566 Z"/>
<path id="S12" fill="none" stroke="#a1c4ff" stroke-width="1" stroke-linecap="round" stroke-linejoin="round" d="M 357.877 32.566 C 361.094 34.047 361.974 36.520 361.229 38.136 C 360.485 39.753 358.034 40.693 354.817 39.212 C 351.600 37.731 350.720 35.258 351.465 33.641 "/>
<path id="S13" fill="#ffffff" fill-rule="evenodd" stroke="none" d="M 359.850 35.991 C 361.927 36.981 363.028 39.311 362.028 41.074 C 361.134 42.650 359.042 42.647 357.109 41.945 C 355.097 41.214 353.277 39.761 353.713 37.920 C 354.257 35.620 357.433 34.840 359.850 35.991 Z"/>
<path id="S13" fill="none" stroke="#a1c4ff" stroke-width="1" stroke-linecap="round" stroke-linejoin="round" d="M 359.850 35.991 C 361.927 36.981 363.028 39.311 362.028 41.074 C 361.134 42.650 359.042 42.647 357.109 41.945 C 355.097 41.214 353.277 39.761 353.713 37.920 "/>
<path id="S14" fill="#ffffff" fill-rule="evenodd" stroke="none" d="M 360.225 39.186 C 363.093 40.037 362.390 42.580 361.749 43.383 C 361.565 43.613 361.309 43.718 360.466 43.591 C 357.968 43.212 357.150 42.500 357.039 41.620 C 356.920 40.667 357.593 38.405 360.225 39.186 Z"/>
<path id="S14" fill="none" stroke="#a1c4ff" stroke-width="1" stroke-linecap="round" stroke-linejoin="round" d="M 360.225 39.186 C 363.093 40.037 362.390 42.580 361.749 43.383 C 361.565 43.613 361.309 43.718 360.466 43.591 C 357.968 43.212 357.150 42.500 357.039 41.620 "/>
</g>
<g id="sky3">
<path id="S1" fill="#ffffff" fill-rule="evenodd" stroke="none" d="M 218.259 10.655 C 225.098 11.406 229.802 15.019 229.417 18.520 C 229.033 22.021 223.658 24.528 216.819 23.777 C 209.980 23.027 205.276 19.414 205.660 15.913 C 206.045 12.412 211.420 9.905 218.259 10.655 Z"/>
<path id="S1" fill="none" stroke="#a1c4ff" stroke-width="1" stroke-linecap="round" stroke-linejoin="round" d="M 218.259 10.655 C 225.098 11.406 229.802 15.019 229.417 18.520 C 229.033 22.021 223.658 24.528 216.819 23.777 M 205.660 15.913 C 206.045 12.412 211.420 9.905 218.259 10.655 "/>
<path id="S2" fill="#ffffff" fill-rule="evenodd" stroke="none" d="M 229.147 18.315 C 233.384 18.780 236.188 20.949 235.963 22.995 C 235.739 25.040 232.531 26.550 228.294 26.085 C 224.056 25.620 221.253 23.451 221.477 21.405 C 221.702 19.360 224.909 17.850 229.147 18.315 Z"/>
<path id="S2" fill="none" stroke="#a1c4ff" stroke-width="1" stroke-linecap="round" stroke-linejoin="round" d="M 229.147 18.315 C 233.384 18.780 236.188 20.949 235.963 22.995 C 235.739 25.040 232.531 26.550 228.294 26.085 C 224.056 25.620 221.253 23.451 221.477 21.405 "/>
<path id="S3" fill="#ffffff" fill-rule="evenodd" stroke="none" d="M 207.009 14.313 C 210.453 14.691 212.644 16.399 212.472 17.971 C 212.299 19.542 209.790 20.734 206.346 20.356 C 202.902 19.978 200.710 18.270 200.883 16.699 C 201.055 15.128 203.565 13.935 207.009 14.313 Z"/>
<path id="S3" fill="none" stroke="#a1c4ff" stroke-width="1" stroke-linecap="round" stroke-linejoin="round" d="M 206.346 20.356 C 202.902 19.978 200.710 18.270 200.883 16.699 C 201.055 15.128 203.565 13.935 207.009 14.313 "/>
<path id="S4" fill="#ffffff" fill-rule="evenodd" stroke="none" d="M 206.271 17.028 C 211.436 17.595 214.861 20.244 214.586 22.746 C 214.312 25.248 210.394 27.091 205.229 26.524 C 200.064 25.957 196.639 23.308 196.914 20.806 C 197.188 18.304 201.107 16.461 206.271 17.028 Z"/>
<path id="S4" fill="none" stroke="#a1c4ff" stroke-width="1" stroke-linecap="round" stroke-linejoin="round" d="M 214.586 22.746 C 214.312 25.248 210.394 27.091 205.229 26.524 C 200.064 25.957 196.639 23.308 196.914 20.806 C 197.188 18.304 201.107 16.461 206.271 17.028 "/>
<path id="S5" fill="#ffffff" fill-rule="evenodd" stroke="#a1c4ff" stroke-width="1" stroke-linecap="round" stroke-linejoin="round" d="M 219.553 20.233 C 224.806 20.809 228.010 23.328 227.762 25.590 C 227.514 27.851 223.840 29.615 218.587 29.038 C 213.335 28.462 210.131 25.943 210.379 23.682 C 210.627 21.420 214.301 19.657 219.553 20.233 Z"/>
<path id="S6" fill="#ffffff" fill-rule="evenodd" stroke="none" d="M 234.814 22.781 C 239.953 23.345 242.717 25.579 242.509 27.470 C 242.302 29.361 239.119 30.942 233.980 30.378 C 228.841 29.814 226.077 27.580 226.285 25.690 C 226.492 23.799 229.675 22.217 234.814 22.781 Z"/>
<path id="S6" fill="none" stroke="#a1c4ff" stroke-width="1" stroke-linecap="round" stroke-linejoin="round" d="M 234.814 22.781 C 239.953 23.345 242.717 25.579 242.509 27.470 C 242.302 29.361 239.119 30.942 233.980 30.378 C 228.841 29.814 226.077 27.580 226.285 25.690 "/>
<path id="S7" fill="#ffffff" fill-rule="evenodd" stroke="none" d="M 198.341 19.827 C 202.743 20.310 204.702 21.978 204.556 23.305 C 204.410 24.632 202.137 25.835 197.734 25.352 C 193.332 24.869 191.373 23.201 191.519 21.874 C 191.664 20.548 193.938 19.344 198.341 19.827 Z"/>
<path id="S7" fill="none" stroke="#a1c4ff" stroke-width="1" stroke-linecap="round" stroke-linejoin="round" d="M 204.556 23.305 C 204.410 24.632 202.137 25.835 197.734 25.352 C 193.332 24.869 191.373 23.201 191.519 21.874 C 191.664 20.548 193.938 19.344 198.341 19.827 "/>
<path id="S8" fill="#ffffff" fill-rule="evenodd" stroke="none" d="M 192.193 21.075 C 195.069 21.390 196.431 22.529 196.330 23.451 C 196.229 24.372 194.652 25.189 191.776 24.873 C 188.900 24.557 187.538 23.419 187.639 22.497 C 187.740 21.575 189.317 20.759 192.193 21.075 Z"/>
<path id="S8" fill="none" stroke="#a1c4ff" stroke-width="1" stroke-linecap="round" stroke-linejoin="round" d="M 196.330 23.451 C 196.229 24.372 194.652 25.189 191.776 24.873 C 188.900 24.557 187.538 23.419 187.639 22.497 C 187.740 21.575 189.317 20.759 192.193 21.075 "/>
<path id="S9" fill="#ffffff" fill-rule="evenodd" stroke="none" d="M 242.224 26.884 C 245.433 27.236 247.224 28.671 247.089 29.905 C 246.953 31.138 244.894 32.151 241.685 31.799 C 238.476 31.447 236.685 30.012 236.820 28.778 C 236.955 27.544 239.015 26.532 242.224 26.884 Z"/>
<path id="S9" fill="none" stroke="#a1c4ff" stroke-width="1" stroke-linecap="round" stroke-linejoin="round" d="M 242.224 26.884 C 245.433 27.236 247.224 28.671 247.089 29.905 C 246.953 31.138 244.894 32.151 241.685 31.799 C 238.476 31.447 236.685 30.012 236.820 28.778 "/>
<path id="S10" fill="#ffffff" fill-rule="evenodd" stroke="none" d="M 217.764 14.244 C 221.468 14.651 223.731 16.429 223.556 18.027 C 223.380 19.625 220.785 20.870 217.081 20.464 C 213.377 20.057 211.114 18.279 211.289 16.681 C 211.465 15.083 214.060 13.838 217.764 14.244 Z"/>
<path id="S10" fill="none" stroke="#a1c4ff" stroke-width="1" stroke-linecap="round" stroke-linejoin="round" d="M 217.764 14.244 C 221.468 14.651 223.731 16.429 223.556 18.027 M 217.081 20.464 C 213.377 20.057 211.114 18.279 211.289 16.681 C 211.465 15.083 214.060 13.838 217.764 14.244 "/>
<path id="S11" fill="#ffffff" fill-rule="evenodd" stroke="none" d="M 224.457 19.408 C 227.939 19.790 229.854 21.330 229.710 22.645 C 229.565 23.960 227.362 25.048 223.880 24.666 C 220.398 24.284 218.482 22.744 218.627 21.429 C 218.771 20.113 220.975 19.026 224.457 19.408 Z"/>
<path id="S11" fill="none" stroke="#a1c4ff" stroke-width="1" stroke-linecap="round" stroke-linejoin="round" d="M 224.457 19.408 C 227.939 19.790 229.854 21.330 229.710 22.645 C 229.565 23.960 227.362 25.048 223.880 24.666 C 220.398 24.284 218.482 22.744 218.627 21.429 "/>
<path id="S12" fill="#ffffff" fill-rule="evenodd" stroke="none" d="M 213.353 19.179 C 218.412 19.734 219.837 21.124 219.728 22.117 C 219.619 23.110 217.926 24.158 212.868 23.603 C 207.809 23.048 206.384 21.658 206.493 20.665 C 206.602 19.672 208.295 18.624 213.353 19.179 Z"/>
<path id="S12" fill="none" stroke="#a1c4ff" stroke-width="1" stroke-linecap="round" stroke-linejoin="round" d="M 219.728 22.117 C 219.619 23.110 217.926 24.158 212.868 23.603 M 206.493 20.665 C 206.602 19.672 208.295 18.624 213.353 19.179 "/>
</g>
</g>
</svg>
